<?xml version="1.0" encoding="UTF-8"?>
<svg version="1.1" xmlns="http://www.w3.org/2000/svg" width="995" height="290">
    <path d="M0 0 C328.35 0 656.7 0 995 0 C995 95.7 995 191.4 995 290 C666.65 290 338.3 290 0 290 C0 194.3 0 98.6 0 0 Z " fill="#2E94C9" transform="translate(0,0)"/>
    <path d="M0 0 C2.93383336 -0.24817926 5.63632685 -0.32643881 8.5625 -0.25 C9.75262695 -0.24226563 9.75262695 -0.24226563 10.96679688 -0.234375 C16.84595509 -0.15404491 16.84595509 -0.15404491 18 1 C18.0927833 2.38160115 18.11747043 3.76788038 18.11352539 5.15258789 C18.11340454 6.04578735 18.11328369 6.93898682 18.11315918 7.85925293 C18.10548523 9.27663757 18.10548523 9.27663757 18.09765625 10.72265625 C18.09664917 11.58661011 18.09564209 12.45056396 18.09460449 13.34069824 C18.0893555 16.58131225 18.07539436 19.8219074 18.0625 23.0625 C18.041875 30.301875 18.02125 37.54125 18 45 C34.83 45 51.66 45 69 45 C68.92082867 30.93864415 68.92082867 30.93864415 68.81982422 16.87744141 C68.81398476 15.11881756 68.80888791 13.36019102 68.8046875 11.6015625 C68.79445557 10.68334717 68.78422363 9.76513184 68.77368164 8.8190918 C68.77331909 7.50992798 68.77331909 7.50992798 68.77294922 6.17431641 C68.768508 5.41486725 68.76406677 4.65541809 68.75949097 3.87295532 C69 2 69 2 71 0 C73.70922801 -0.19852102 76.29303179 -0.27839477 79 -0.25 C80.10601562 -0.26160156 80.10601562 -0.26160156 81.234375 -0.2734375 C86.7466804 -0.2533196 86.7466804 -0.2533196 89 2 C89.25168228 3.89595032 89.25168228 3.89595032 89.25396729 6.2512207 C89.25960693 7.14298004 89.26524658 8.03473938 89.27105713 8.95352173 C89.26700867 9.93436737 89.26296021 10.91521301 89.25878906 11.92578125 C89.2622937 12.9567392 89.26579834 13.98769714 89.26940918 15.04989624 C89.27823937 18.47083188 89.27237275 21.89156211 89.265625 25.3125 C89.26697128 27.68139689 89.2689115 30.05029351 89.27142334 32.41918945 C89.27437635 37.38918686 89.27007124 42.35911248 89.26074219 47.32910156 C89.24934761 53.71189589 89.25590613 60.09452203 89.26788712 66.47731018 C89.27510091 71.37049638 89.27281999 76.26364245 89.26763153 81.15682983 C89.2662937 83.51085429 89.26794737 85.86488234 89.27259064 88.21890259 C89.27764795 91.50410669 89.26995672 94.78903527 89.25878906 98.07421875 C89.26283752 99.05506439 89.26688599 100.03591003 89.27105713 101.04647827 C89.26541748 101.93823761 89.25977783 102.82999695 89.25396729 103.7487793 C89.25321323 104.52601852 89.25245918 105.30325775 89.25168228 106.10404968 C89 108 89 108 87 110 C84.0906442 110.14517744 81.280054 110.18630796 78.375 110.125 C77.57320313 110.11597656 76.77140625 110.10695313 75.9453125 110.09765625 C73.96341477 110.07406223 71.98167019 110.03819065 70 110 C68.84589746 107.69179492 68.8789703 106.39215724 68.88647461 103.82568359 C68.88659546 102.95290771 68.88671631 102.08013184 68.88684082 101.1809082 C68.89195679 100.26269287 68.89707275 99.34447754 68.90234375 98.3984375 C68.90335083 97.55514893 68.90435791 96.71186035 68.90539551 95.84301758 C68.91063524 92.68699792 68.92459647 89.53099762 68.9375 86.375 C68.958125 79.32125 68.97875 72.2675 69 65 C52.5 65 36 65 19 65 C19.07917133 79.06135585 19.07917133 79.06135585 19.18017578 93.12255859 C19.18601524 94.88118244 19.19111209 96.63980898 19.1953125 98.3984375 C19.20554443 99.31665283 19.21577637 100.23486816 19.22631836 101.1809082 C19.22656006 102.05368408 19.22680176 102.92645996 19.22705078 103.82568359 C19.231492 104.58513275 19.23593323 105.34458191 19.24050903 106.12704468 C19 108 19 108 17 110 C14.12657939 110.19856972 11.37138012 110.27828946 8.5 110.25 C7.32244141 110.26160156 7.32244141 110.26160156 6.12109375 110.2734375 C0.25330787 110.25330787 0.25330787 110.25330787 -2 108 C-2.25168228 106.12246037 -2.25168228 106.12246037 -2.25396729 103.79347229 C-2.25960693 102.91157227 -2.26524658 102.02967224 -2.27105713 101.12104797 C-2.26700867 100.15112411 -2.26296021 99.18120026 -2.25878906 98.18188477 C-2.2622937 97.16228668 -2.26579834 96.1426886 -2.26940918 95.0921936 C-2.27823996 91.70852935 -2.27237211 88.32507277 -2.265625 84.94140625 C-2.26697137 82.59732523 -2.26891166 80.25324449 -2.27142334 77.90916443 C-2.27437652 72.99044136 -2.2700711 68.07179082 -2.26074219 63.15307617 C-2.24935387 56.8398819 -2.25590206 50.52685778 -2.26788712 44.21366978 C-2.27510582 39.37105522 -2.27281762 34.52848116 -2.26763153 29.6858654 C-2.26629474 27.35778725 -2.26794377 25.02970545 -2.27259064 22.70163155 C-2.27765528 19.45015824 -2.26994602 16.19896235 -2.25878906 12.94750977 C-2.26283752 11.97961014 -2.26688599 11.01171051 -2.27105713 10.01448059 C-2.26541748 9.12976074 -2.25977783 8.24504089 -2.25396729 7.33351135 C-2.25321323 6.56456826 -2.25245918 5.79562517 -2.25168228 5.00338078 C-2 3 -2 3 0 0 Z " fill="#E9DEEC" transform="translate(224,83)"/>
    <path d="M0 0 C7.28109554 5.0798341 9.76039263 12.1221718 12.9375 20.125 C13.44610959 21.38288905 13.95574536 22.64036358 14.46630859 23.89746094 C15.59333306 26.67792449 16.71346016 29.46104381 17.82910156 32.24609375 C19.83654265 37.25377619 21.86694963 42.25203426 23.8984375 47.25 C27.18228414 55.33240362 30.45108503 63.42076433 33.71202087 71.51243591 C35.53704235 76.0373034 37.37220121 80.55765834 39.22729492 85.07028198 C39.96526899 86.86638409 40.69927442 88.66411527 41.43310547 90.46191406 C42.28080803 92.53826671 43.13480838 94.61206506 43.99658203 96.68261719 C44.54161377 98.02501465 44.54161377 98.02501465 45.09765625 99.39453125 C45.56377319 100.52532104 45.56377319 100.52532104 46.03930664 101.67895508 C46.77994547 104.18820038 46.87211096 106.27179052 46.6875 108.875 C44.51042824 111.05207176 39.81719122 110.19907303 36.8125 110.25 C35.56919922 110.30607422 35.56919922 110.30607422 34.30078125 110.36328125 C33.50285156 110.37488281 32.70492187 110.38648438 31.8828125 110.3984375 C30.78477295 110.4281665 30.78477295 110.4281665 29.66455078 110.45849609 C27.6875 109.875 27.6875 109.875 26.26109314 107.813797 C24.42802363 104.39040945 22.9567741 100.87686167 21.53295898 97.27075195 C21.2333728 96.52220947 20.93378662 95.77366699 20.62512207 95.00244141 C19.9783177 93.38484515 19.33346547 91.76646724 18.69036674 90.14739418 C17.67298817 87.58658632 16.6501127 85.02803698 15.62574768 82.47001648 C13.08442944 76.12086804 10.55173452 69.76828989 8.02038574 63.41516113 C5.87757531 58.0376064 3.73075125 52.66169225 1.57808113 47.2880764 C0.56916755 44.76472692 -0.43367823 42.23901954 -1.43641663 39.71321106 C-2.05308067 38.17236945 -2.67004331 36.6316473 -3.28735352 35.09106445 C-3.56532272 34.38610336 -3.84329193 33.68114227 -4.12968445 32.95481873 C-5.27055113 30.12341478 -6.1303415 28.0571585 -8.3125 25.875 C-13.5925 39.405 -18.8725 52.935 -24.3125 66.875 C-18.3725 67.205 -12.4325 67.535 -6.3125 67.875 C-2.4158654 74.369391 0.30381048 79.17111903 -0.3125 86.875 C-1.3125 87.875 -1.3125 87.875 -4.36352539 87.98852539 C-5.71241271 87.98836634 -7.06130614 87.98267612 -8.41015625 87.97265625 C-9.47344398 87.97053383 -9.47344398 87.97053383 -10.55821228 87.96836853 C-12.83051712 87.96275443 -15.10272475 87.95019963 -17.375 87.9375 C-18.91210796 87.93248681 -20.44921745 87.92792359 -21.98632812 87.92382812 C-25.76175642 87.91278042 -29.53711171 87.89550641 -33.3125 87.875 C-33.5916626 88.73641602 -33.5916626 88.73641602 -33.87646484 89.61523438 C-35.40584596 94.2778637 -37.0356202 98.84782599 -38.9375 103.375 C-39.36289062 104.3959375 -39.78828125 105.416875 -40.2265625 106.46875 C-41.3125 108.875 -41.3125 108.875 -42.3125 109.875 C-43.71598735 109.97360131 -45.12430477 110.00578937 -46.53125 110.0078125 C-47.80548828 110.00974609 -47.80548828 110.00974609 -49.10546875 110.01171875 C-49.99878906 110.00785156 -50.89210938 110.00398438 -51.8125 110 C-52.70582031 110.00386719 -53.59914063 110.00773437 -54.51953125 110.01171875 C-55.36902344 110.01042969 -56.21851563 110.00914062 -57.09375 110.0078125 C-57.87814453 110.00668457 -58.66253906 110.00555664 -59.47070312 110.00439453 C-61.3125 109.875 -61.3125 109.875 -62.3125 108.875 C-61.97353738 101.85927646 -59.07579124 95.69840698 -56.45703125 89.26171875 C-55.95756166 88.0182478 -55.45876128 86.77450786 -54.96058655 85.53051758 C-53.6322467 82.21956867 -52.29416334 78.91264748 -50.95339203 75.60671616 C-49.84785247 72.87858533 -48.74682072 70.14864516 -47.64577484 67.41869831 C-45.46283226 62.0062924 -43.27552559 56.59568162 -41.08220673 51.18747234 C-38.6450779 45.17780185 -36.22354481 39.16229671 -33.82798767 33.13591003 C-32.5701929 29.97500224 -31.30196916 26.81836865 -30.03036499 23.66299438 C-29.47547192 22.28015158 -28.92491646 20.89555903 -28.37905884 19.50912476 C-22.10305434 3.59601645 -22.10305434 3.59601645 -15.28027344 -0.27929688 C-10.45872053 -2.35148785 -4.83811146 -1.64313219 0 0 Z " fill="#ECDFEC" transform="translate(388.3125,83.125)"/>
    <path d="M0 0 C1.79161812 -0.01441132 1.79161812 -0.01441132 3.61943054 -0.02911377 C5.53994987 -0.03548859 5.53994987 -0.03548859 7.49926758 -0.04199219 C8.81921219 -0.04769226 10.1391568 -0.05339233 11.49909973 -0.05926514 C14.28553653 -0.06973872 17.07194475 -0.0756067 19.85839844 -0.07910156 C23.43310092 -0.08461131 27.0074273 -0.10870647 30.58201122 -0.13707352 C33.99192351 -0.16012372 37.40178135 -0.16214244 40.81176758 -0.16699219 C42.09818649 -0.17933899 43.38460541 -0.19168579 44.71000671 -0.20440674 C45.89496231 -0.20140564 47.07991791 -0.19840454 48.30078125 -0.1953125 C49.87033821 -0.20078094 49.87033821 -0.20078094 51.47160339 -0.20635986 C52.70152763 -0.02445099 52.70152763 -0.02445099 53.95629883 0.16113281 C56.40911794 3.84036148 56.22453802 5.78372632 56.20629883 10.16113281 C56.2140332 12.01738281 56.2140332 12.01738281 56.22192383 13.91113281 C55.95629883 17.16113281 55.95629883 17.16113281 53.95629883 20.16113281 C51.75080872 20.54640198 51.75080872 20.54640198 48.97509766 20.56176758 C47.93674271 20.57510635 46.89838776 20.58844513 45.8285675 20.60218811 C44.70153915 20.60230392 43.5745108 20.60241974 42.41333008 20.60253906 C41.25637131 20.61574692 40.09941254 20.62895477 38.90739441 20.64256287 C35.1945053 20.68358918 31.48186379 20.70515269 27.76879883 20.72363281 C24.07366372 20.74744756 20.37876109 20.77566755 16.6837616 20.81541443 C14.38217741 20.83968573 12.08047076 20.85461387 9.77876282 20.85902405 C4.15434138 20.91337654 -0.78071358 21.07787637 -6.04370117 23.16113281 C-9.74580522 29.0508438 -9.20202997 37.21128458 -9.21166992 43.98925781 C-9.21499832 44.81891052 -9.21832672 45.64856323 -9.22175598 46.50335693 C-9.22679472 48.25141856 -9.22916526 49.99948971 -9.22900391 51.74755859 C-9.23118332 54.38948859 -9.24935221 57.03099562 -9.26831055 59.67285156 C-9.30071763 69.44479952 -9.16716729 78.79073445 -6.04370117 88.16113281 C-2.13121857 88.88489388 1.58576056 89.29136406 5.56274414 89.31884766 C6.63695618 89.3291098 7.71116821 89.33937195 8.81793213 89.34994507 C10.53384552 89.36089706 10.53384552 89.36089706 12.28442383 89.37207031 C14.71672253 89.40011257 17.14901412 89.4287768 19.58129883 89.45800781 C23.40877275 89.49943923 27.23611007 89.53633659 31.0637207 89.5625 C34.76256428 89.58996197 38.46080831 89.63580062 42.15942383 89.68457031 C43.8874826 89.68944962 43.8874826 89.68944962 45.65045166 89.69442749 C47.24285675 89.71927719 47.24285675 89.71927719 48.86743164 89.74462891 C50.27258026 89.75675919 50.27258026 89.75675919 51.70611572 89.76913452 C52.81995636 89.96317368 52.81995636 89.96317368 53.95629883 90.16113281 C56.38086907 93.79798818 56.2539829 96.5234606 56.20629883 100.72363281 C56.21790039 101.75133789 56.21790039 101.75133789 56.22973633 102.79980469 C56.20968553 107.90774611 56.20968553 107.90774611 53.95629883 110.16113281 C51.42932129 110.42855835 51.42932129 110.42855835 48.1965332 110.45166016 C46.98767456 110.46441986 45.77881592 110.47717957 44.5333252 110.49032593 C42.56160339 110.4936644 42.56160339 110.4936644 40.55004883 110.49707031 C39.18680685 110.50349964 37.82356625 110.5102281 36.46032715 110.51724243 C33.59534516 110.52923598 30.73048384 110.53292174 27.86547852 110.53173828 C24.21845249 110.53153633 20.57221668 110.5586983 16.92537689 110.5932827 C14.10437579 110.61569151 11.28355957 110.6195714 8.46247864 110.61851883 C6.47187511 110.62198869 4.48132934 110.64358578 2.49084473 110.6656189 C-5.84835143 110.62403861 -13.60685648 109.99497056 -20.14880371 104.34213257 C-29.48438681 94.81612263 -30.19859903 82.80991128 -30.24682617 70.18457031 C-30.25252625 69.02293365 -30.25822632 67.861297 -30.26409912 66.66445923 C-30.27352973 64.20844426 -30.28007538 61.75241676 -30.28393555 59.29638672 C-30.293613 55.57008304 -30.32464432 51.84433781 -30.35620117 48.11816406 C-30.36273489 45.72363606 -30.36798391 43.32910414 -30.37182617 40.93457031 C-30.38417297 39.83414398 -30.39651978 38.73371765 -30.40924072 37.59994507 C-30.37791801 26.52778674 -28.73779293 15.64820895 -21.04370117 7.16113281 C-20.38370117 7.16113281 -19.72370117 7.16113281 -19.04370117 7.16113281 C-19.04370117 6.50113281 -19.04370117 5.84113281 -19.04370117 5.16113281 C-17.81863219 4.50756003 -16.58840601 3.86365048 -15.35620117 3.22363281 C-14.67170898 2.86398438 -13.9872168 2.50433594 -13.28198242 2.13378906 C-8.93564686 0.24506733 -4.69547291 0.03057016 0 0 Z " fill="#EADFEC" transform="translate(154.043701171875,82.8388671875)"/>
    <path d="M0 0 C6.27 0 12.54 0 19 0 C22.69549168 7.13589632 25.81231848 14.313321 28.6875 21.8125 C29.63529656 24.25316981 30.58436037 26.69331259 31.53515625 29.1328125 C31.79468079 29.79969589 32.05420532 30.46657928 32.32159424 31.15367126 C35.9597753 40.48707897 39.67432223 49.79026378 43.38980103 59.09310913 C44.21396775 61.15779185 45.03702518 63.2229177 45.85897827 65.28848267 C47.02066411 68.20765301 48.18566523 71.12547833 49.3515625 74.04296875 C49.70524399 74.93333832 50.05892548 75.82370789 50.42332458 76.74105835 C50.74849564 77.55249298 51.07366669 78.36392761 51.40869141 79.19995117 C51.69306061 79.91269699 51.97742981 80.62544281 52.27041626 81.35978699 C52.88423219 83.00379683 52.88423219 83.00379683 54 84 C61.79971928 64.57510477 69.52363805 45.12086793 77.21069336 25.65112305 C77.56465683 24.75473618 77.9186203 23.8583493 78.28330994 22.93479919 C78.94293971 21.26412634 79.60235282 19.59336792 80.26148987 17.92250061 C80.86291879 16.39897904 81.46534373 14.87585022 82.06884766 13.35314941 C82.74382502 11.64738923 83.41486695 9.94007008 84.08349609 8.23181152 C84.44137207 7.32354614 84.79924805 6.41528076 85.16796875 5.47949219 C85.49434326 4.6471405 85.82071777 3.81478882 86.15698242 2.95721436 C87 1 87 1 88 0 C89.4887186 -0.08669432 90.981445 -0.10703494 92.47265625 -0.09765625 C93.37177734 -0.09443359 94.27089844 -0.09121094 95.19726562 -0.08789062 C96.61555664 -0.07532227 96.61555664 -0.07532227 98.0625 -0.0625 C99.4865918 -0.05573242 99.4865918 -0.05573242 100.93945312 -0.04882812 C103.29303065 -0.0370011 105.64648477 -0.02052025 108 0 C108.30041159 4.93086331 107.34896279 8.35200591 105.49658203 12.90966797 C105.22979141 13.57425018 104.96300079 14.2388324 104.68812561 14.92355347 C103.80457199 17.11724307 102.90635128 19.30459795 102.0078125 21.4921875 C101.38070783 23.04002102 100.75449323 24.58821543 100.12911987 26.13674927 C98.47520285 30.22481827 96.80865688 34.30762486 95.1395874 38.38952637 C93.48083557 42.45303429 91.83485523 46.52170572 90.1875 50.58984375 C87.34373307 57.60748728 84.482061 64.61761963 81.60821915 71.62299728 C79.72016371 76.22877954 77.85379087 80.84262636 75.99902344 85.46191406 C75.1220505 87.62317095 74.24479553 89.78431342 73.3671875 91.9453125 C72.99030792 92.89703339 72.61342834 93.84875427 72.22512817 94.82931519 C69.56825418 101.31718772 66.98714019 106.30916593 60.6875 109.875 C55.12495266 111.57204834 50.579717 112.07958193 45.25 109.4375 C38.46233091 105.73064188 35.79018226 95.00863786 33.0625 88.3125 C32.56669434 87.10585693 32.07088867 85.89921387 31.56005859 84.65600586 C25.09176205 68.88678788 18.74448926 53.0672794 12.38696289 37.25317383 C11.94790115 36.16264206 11.50883942 35.07211029 11.05647278 33.9485321 C10.20092925 31.82335954 9.34671897 29.69764968 8.49394226 27.57136536 C6.72652512 23.18312974 4.94383474 18.8124921 2.99902344 14.49951172 C2.56249954 13.52648354 2.56249954 13.52648354 2.11715698 12.53379822 C1.37753818 10.90638961 0.6192106 9.28751652 -0.14111328 7.66967773 C-1 5 -1 5 0 0 Z " fill="#ECDEEC" transform="translate(547,82)"/>
    <path d="M0 0 C0.73020355 -0.00175232 1.4604071 -0.00350464 2.21273804 -0.00531006 C4.63200236 -0.00971982 7.05119389 -0.00679396 9.47045898 -0.00341797 C11.14672357 -0.00409119 12.82298807 -0.00506136 14.49925232 -0.00631714 C18.01399667 -0.00779286 21.52871563 -0.00564329 25.04345703 -0.00097656 C29.5587214 0.00472504 34.07392638 0.0014382 38.58918858 -0.00454903 C42.05059765 -0.00815427 45.51199253 -0.0070163 48.97340202 -0.00442123 C50.63885442 -0.00375209 52.30430808 -0.00457995 53.96975899 -0.00690079 C56.2923743 -0.00942719 58.614892 -0.00558713 60.9375 0 C61.63206802 -0.00202423 62.32663605 -0.00404846 63.04225159 -0.00613403 C67.78978905 0.01513085 67.78978905 0.01513085 68.90405273 1.12939453 C69.00392248 3.97274501 69.04283155 6.78636616 69.02905273 9.62939453 C69.03291992 10.42732422 69.03678711 11.22525391 69.04077148 12.04736328 C69.03066041 18.00278686 69.03066041 18.00278686 67.90405273 19.12939453 C65.97098775 19.2233551 64.03446435 19.24682971 62.09912109 19.24291992 C60.85791 19.24284439 59.61669891 19.24276886 58.33787537 19.24269104 C56.97321534 19.23758364 55.60855571 19.23236763 54.24389648 19.22705078 C52.8552709 19.22518653 51.46664466 19.22376266 50.07801819 19.22276306 C46.41684159 19.2189384 42.75570443 19.20910856 39.09454346 19.19805908 C35.3611301 19.18784385 31.6277104 19.1832652 27.89428711 19.17822266 C20.56419097 19.16748624 13.23412737 19.15041045 5.90405273 19.12939453 C6.01831782 21.54700329 6.14504934 23.96286671 6.27905273 26.37939453 C6.30999023 27.06130859 6.34092773 27.74322266 6.37280273 28.44580078 C6.61073971 33.63593239 6.61073971 33.63593239 8.90405273 38.12939453 C12.42134995 40.02864518 15.4401971 40.38588319 19.39697266 40.41650391 C20.47126022 40.42991821 21.54554779 40.44333252 22.65238953 40.45715332 C24.37604485 40.46506897 24.37604485 40.46506897 26.13452148 40.47314453 C27.32128983 40.48776733 28.50805817 40.50239014 29.73078918 40.51745605 C34.80593237 40.5797362 39.88119543 40.6194554 44.95654297 40.66113281 C48.66183506 40.69475486 52.36686278 40.73988062 56.07202148 40.78564453 C57.80478584 40.79356018 57.80478584 40.79356018 59.57255554 40.80163574 C61.16980217 40.8217572 61.16980217 40.8217572 62.79931641 40.84228516 C63.73909836 40.84957642 64.67888031 40.85686768 65.6471405 40.86437988 C67.90405273 41.12939453 67.90405273 41.12939453 69.90405273 43.12939453 C70.1628418 45.16064453 70.1628418 45.16064453 70.16967773 47.62939453 C70.17354492 48.95970703 70.17354492 48.95970703 70.17749023 50.31689453 C70.16975586 51.24501953 70.16202148 52.17314453 70.15405273 53.12939453 C70.1656543 54.52158203 70.1656543 54.52158203 70.17749023 55.94189453 C70.17491211 56.82876953 70.17233398 57.71564453 70.16967773 58.62939453 C70.16742187 59.44408203 70.16516602 60.25876953 70.1628418 61.09814453 C69.90405273 63.12939453 69.90405273 63.12939453 67.90405273 65.12939453 C65.53565979 65.39682007 65.53565979 65.39682007 62.52734375 65.41992188 C61.40179581 65.43268158 60.27624786 65.44544128 59.11659241 65.45858765 C57.28081886 65.46192612 57.28081886 65.46192612 55.40795898 65.46533203 C53.52028053 65.47531723 53.52028053 65.47531723 51.59446716 65.48550415 C48.9218846 65.49565203 46.24970826 65.50118356 43.57714844 65.5 C40.18130041 65.49979836 36.78630406 65.52692625 33.39065647 65.56154442 C30.12562437 65.58940577 26.86059358 65.58797042 23.59545898 65.59033203 C22.38982803 65.60470306 21.18419708 65.6190741 19.94203186 65.63388062 C11.03340846 65.58637542 3.50488153 64.052274 -4.08422852 59.23095703 C-6.40352395 56.80808142 -7.8028152 54.51329293 -9.28344727 51.50439453 C-9.77200195 50.54275391 -10.26055664 49.58111328 -10.76391602 48.59033203 C-14.24283926 39.55125287 -14.48796404 30.48140783 -14.53344727 20.87939453 C-14.56631836 19.63931641 -14.59918945 18.39923828 -14.63305664 17.12158203 C-14.69272887 7.03155102 -14.69272887 7.03155102 -11.69360352 3.33251953 C-7.7102628 -0.0458326 -5.03019393 -0.01470272 0 0 Z " fill="#EDDFEC" transform="translate(463.095947265625,127.87060546875)"/>
    <path d="M0 0 C2.93804996 -0.08086376 5.87388075 -0.1404283 8.8125 -0.1875 C9.64587891 -0.21263672 10.47925781 -0.23777344 11.33789062 -0.26367188 C12.54155273 -0.27817383 12.54155273 -0.27817383 13.76953125 -0.29296875 C14.87711792 -0.31653442 14.87711792 -0.31653442 16.00708008 -0.34057617 C18.64217305 0.10974291 19.35760969 0.90760097 21 3 C22.0178411 4.69395089 22.9778794 6.42314892 23.8984375 8.171875 C24.4543457 9.21851318 25.01025391 10.26515137 25.58300781 11.34350586 C26.47004395 13.02972046 26.47004395 13.02972046 27.375 14.75 C28.62566059 17.10132753 29.87771083 19.45182972 31.1328125 21.80078125 C31.45141235 22.39770279 31.77001221 22.99462433 32.0982666 23.6096344 C35.39437632 29.76835459 38.80661082 35.86001095 42.25 41.9375 C42.79833496 42.90719727 43.34666992 43.87689453 43.91162109 44.87597656 C45.86645546 48.31752532 47.80367666 51.70551499 50 55 C50.62491333 53.81748657 50.62491333 53.81748657 51.26245117 52.61108398 C58.50659375 38.92041935 65.76798879 25.24355821 73.375 11.75 C73.91535889 10.78763428 74.45571777 9.82526855 75.01245117 8.83374023 C75.51107666 7.95532471 76.00970215 7.07690918 76.5234375 6.171875 C76.95575684 5.4097168 77.38807617 4.64755859 77.83349609 3.86230469 C79 2 79 2 81 0 C82.87939453 -0.22705078 82.87939453 -0.22705078 85.1328125 -0.1953125 C86.34130859 -0.18564453 86.34130859 -0.18564453 87.57421875 -0.17578125 C88.83685547 -0.15064453 88.83685547 -0.15064453 90.125 -0.125 C91.39923828 -0.11146484 91.39923828 -0.11146484 92.69921875 -0.09765625 C94.79959884 -0.07405647 96.89983444 -0.03818483 99 0 C99.91257921 3.01059849 100.17254558 4.55521966 99.01879883 7.52929688 C98.24572388 8.86057617 98.24572388 8.86057617 97.45703125 10.21875 C96.8839624 11.22244629 96.31089355 12.22614258 95.72045898 13.26025391 C94.77601929 14.86392822 94.77601929 14.86392822 93.8125 16.5 C93.1719165 17.6142334 92.53133301 18.7284668 91.87133789 19.87646484 C90.55399169 22.16555968 89.23064025 24.45120885 87.90136719 26.73339844 C85.7044938 30.50768785 83.53955147 34.29938361 81.37890625 38.09448242 C79.93655927 40.62665153 78.4883339 43.15538252 77.0390625 45.68359375 C73.6100902 51.6735159 70.20934569 57.67931457 66.8125 63.6875 C65.96449829 65.18627686 65.96449829 65.18627686 65.09936523 66.71533203 C64.57802002 67.63813965 64.0566748 68.56094727 63.51953125 69.51171875 C63.05651611 70.33115967 62.59350098 71.15060059 62.11645508 71.99487305 C59.92355577 75.93326841 59.83687599 78.5569154 59.75390625 83.125 C59.72097912 84.56771466 59.68776729 86.01042284 59.65429688 87.453125 C59.60679854 89.73107613 59.56234534 92.00899889 59.52319336 94.28710938 C59.48356807 96.48334677 59.4320142 98.67905317 59.37890625 100.875 C59.3538501 102.19242187 59.32879395 103.50984375 59.30297852 104.8671875 C59 108 59 108 57 110 C54.45770841 110.17201285 52.03850004 110.23257617 49.5 110.1875 C48.81035156 110.18685547 48.12070312 110.18621094 47.41015625 110.18554688 C42.28111049 110.14055525 42.28111049 110.14055525 40 109 C40.04302246 108.13125244 40.08604492 107.26250488 40.13037109 106.36743164 C40.9305203 85.63318981 38.83181678 71.66538843 26.96826172 54.01367188 C23.6442905 48.92422747 20.78962829 43.58068024 17.875 38.25 C14.46078493 32.10209946 11.00945833 25.98384486 7.41796875 19.9375 C6.85287598 18.97811523 6.2877832 18.01873047 5.70556641 17.03027344 C4.63816144 15.22409101 3.55901794 13.42477611 2.46630859 11.63378906 C1.75788818 10.43061035 1.75788818 10.43061035 1.03515625 9.203125 C0.6162915 8.50864258 0.19742676 7.81416016 -0.23413086 7.09863281 C-1.21704583 4.40525154 -0.76211694 2.71858297 0 0 Z " fill="#EDDEEC" transform="translate(764,83)"/>
    <path d="M0 0 C1.10601563 0.00483398 1.10601563 0.00483398 2.234375 0.00976562 C2.97171875 -0.00634766 3.7090625 -0.02246094 4.46875 -0.0390625 C6.609375 -0.04101562 6.609375 -0.04101562 10.234375 0.32226562 C12.62584357 3.90946849 12.52075772 6.4786923 12.50561523 10.62011719 C12.51084198 11.36033615 12.51606873 12.10055511 12.52145386 12.86320496 C12.53169417 14.47064341 12.53747432 16.07811503 12.53933525 17.68558502 C12.54299835 20.23347936 12.5597249 22.78098423 12.58009338 25.32879639 C12.63549954 32.57280213 12.66613538 39.81686615 12.69067383 47.06103516 C12.70659166 51.49313767 12.73685927 55.92496592 12.77543831 60.35692596 C12.78705593 62.04250923 12.79301837 63.72814166 12.79311943 65.41376495 C12.79331253 67.77841106 12.81165568 70.14230697 12.83374023 72.50683594 C12.82916306 73.19696274 12.82458588 73.88708954 12.81987 74.59812927 C12.89366753 79.59436899 13.9285101 82.97182951 16.234375 87.32226562 C19.49343639 89.49497322 20.45024887 89.57856659 24.22485352 89.609375 C25.74641808 89.62949646 25.74641808 89.62949646 27.29872131 89.65002441 C28.39252609 89.65530151 29.48633087 89.66057861 30.61328125 89.66601562 C31.73629135 89.68063843 32.85930145 89.69526123 34.01634216 89.71032715 C38.83035963 89.77272275 43.6445064 89.81227776 48.45874023 89.85400391 C51.9687267 89.88764216 55.4784351 89.93277467 58.98828125 89.97851562 C60.08411026 89.98379272 61.17993927 89.98906982 62.30897522 89.99450684 C63.82581154 90.0146283 63.82581154 90.0146283 65.37329102 90.03515625 C66.2658107 90.04244751 67.15833038 90.04973877 68.07789612 90.05725098 C70.234375 90.32226562 70.234375 90.32226562 72.234375 92.32226562 C72.40616552 95.21358739 72.4666697 97.99668627 72.421875 100.88476562 C72.4209082 102.07489258 72.4209082 102.07489258 72.41992188 103.2890625 C72.37463022 109.18201041 72.37463022 109.18201041 71.234375 110.32226562 C69.5746721 110.43671357 67.91013534 110.48187681 66.24658203 110.49926758 C65.18102081 110.51210281 64.11545959 110.52493805 63.01760864 110.53816223 C61.85421967 110.54554916 60.69083069 110.5529361 59.4921875 110.56054688 C58.29890839 110.56861862 57.10562927 110.57669037 55.87619019 110.58500671 C53.33902449 110.59887536 50.80183991 110.60958499 48.26464844 110.61743164 C44.41043679 110.63453898 40.55710636 110.67838888 36.703125 110.72265625 C34.23698547 110.73279206 31.77083864 110.74130537 29.3046875 110.74804688 C28.16154083 110.76555496 27.01839417 110.78306305 25.84060669 110.80110168 C17.22741388 110.77813306 9.29102184 109.49703272 2.359375 104.07226562 C1.658125 103.16476563 0.956875 102.25726563 0.234375 101.32226562 C-0.19359375 100.76925781 -0.6215625 100.21625 -1.0625 99.64648438 C-8.7374994 88.74347051 -8.20418243 75.67633578 -8.12890625 62.93945312 C-8.12838658 61.19019572 -8.12890841 59.44093774 -8.13041687 57.69168091 C-8.13032778 54.0525016 -8.12001833 50.41354676 -8.10180664 46.77441406 C-8.07895187 42.10476393 -8.07861243 37.43543605 -8.08532429 32.76574516 C-8.08865727 29.16617958 -8.0820497 25.56668796 -8.07219505 21.96713638 C-8.06834379 20.24390168 -8.06719453 18.52065877 -8.0687809 16.7974205 C-8.06915023 14.40173199 -8.05657473 12.00646518 -8.0402832 9.61083984 C-8.04276062 8.89817459 -8.04523804 8.18550934 -8.04779053 7.45124817 C-7.97722847 0.97623919 -6.38274341 0.06406038 0 0 Z " fill="#ECDEEC" transform="translate(676.765625,82.677734375)"/>
    <path d="M0 0 C1.10658966 0.00607269 1.10658966 0.00607269 2.23553467 0.01226807 C3.01289978 0.00876343 3.79026489 0.00525879 4.59118652 0.00164795 C7.16803849 -0.00717493 9.74461727 -0.00131833 12.32147217 0.00543213 C14.10744276 0.00408564 15.89341299 0.00214524 17.67938232 -0.00036621 C21.42534876 -0.00331823 25.17121992 0.00098264 28.91717529 0.01031494 C33.7261005 0.02170953 38.53480248 0.01515047 43.34371948 0.00317001 C47.03250825 -0.00404651 50.72124383 -0.00176162 54.41003418 0.0034256 C56.18351264 0.00476267 57.95699587 0.00311237 59.73046875 -0.00153351 C62.20624642 -0.00659536 64.68165927 0.0011065 67.15740967 0.01226807 C67.89513611 0.0082196 68.63286255 0.00417114 69.39294434 0 C74.46794339 0.04252835 74.46794339 0.04252835 76.69647217 2.27105713 C76.89541016 4.79581429 76.97494651 7.18620462 76.94647217 9.70855713 C76.95807373 10.73046143 76.95807373 10.73046143 76.96990967 11.77301025 C76.95536651 15.48515155 76.80587635 17.10695085 74.69647217 20.27105713 C72.10478615 20.56818269 69.75131817 20.67024761 67.15740967 20.64337158 C66.38004456 20.64702225 65.60267944 20.65067291 64.80175781 20.6544342 C62.22477567 20.66255928 59.6484185 20.64891374 57.07147217 20.63433838 C55.28550212 20.63382001 53.49953149 20.63433682 51.71356201 20.635849 C47.96754456 20.63575919 44.22174194 20.62531178 40.47576904 20.60723877 C35.66682921 20.58455125 30.85820347 20.58400653 26.04922485 20.59075642 C22.36042474 20.59409314 18.67169663 20.58747193 14.98291016 20.57762718 C13.2094358 20.57376976 11.43595343 20.5726292 9.66247559 20.57421303 C7.18667255 20.57458266 4.71127672 20.56199256 2.23553467 20.54571533 C1.12894501 20.54943146 1.12894501 20.54943146 0 20.55322266 C-5.0747863 20.49979866 -5.0747863 20.49979866 -7.30352783 18.27105713 C-7.50204885 15.56182912 -7.5819226 12.97802534 -7.55352783 10.27105713 C-7.56126221 9.53371338 -7.56899658 8.79636963 -7.57696533 8.03668213 C-7.55318962 1.52213694 -6.57523239 0.05510026 0 0 Z " fill="#EBDEEC" transform="translate(456.30352783203125,82.72894287109375)"/>
    <path d="M0 0 C0.66 0.33 1.32 0.66 2 1 C-0.97 3.97 -3.94 6.94 -7 10 C-7 6.47967572 -6.29648649 5.5614657 -4 3 C-3.34 3 -2.68 3 -2 3 C-2 2.34 -2 1.68 -2 1 C-1.34 0.67 -0.68 0.34 0 0 Z " fill="#BAD9E8" transform="translate(137,87)"/>
</svg>