<?xml version="1.0" encoding="UTF-8"?>
<svg version="1.1" xmlns="http://www.w3.org/2000/svg" width="995" height="290">
    <path d="M0 0 C328.35 0 656.7 0 995 0 C995 95.7 995 191.4 995 290 C666.65 290 338.3 290 0 290 C0 194.3 0 98.6 0 0 Z " fill="#050A30" transform="translate(0,0)"/>
    <path d="M0 0 C3.78036407 1.61155433 7.24335628 3.53988609 10.78271484 5.62475586 C11.52070313 6.03854492 12.25869141 6.45233398 13.01904297 6.87866211 C18.6280136 10.15928671 23.39031506 14.08995629 26.34521484 19.99975586 C26.44329077 21.4178956 26.4802315 22.8405072 26.48565674 24.26202393 C26.49136688 25.15641678 26.49707703 26.05080963 26.50296021 26.9723053 C26.50463699 28.4481736 26.50463699 28.4481736 26.50634766 29.95385742 C26.51131256 30.98814377 26.51627747 32.02243011 26.52139282 33.08805847 C26.53604103 36.52217262 26.54282139 39.95624055 26.54833984 43.39038086 C26.55408975 45.77211509 26.5598475 48.1538493 26.56561279 50.5355835 C26.57613079 55.53585018 26.58196802 60.53610075 26.58544922 65.53637695 C26.59093118 71.94347417 26.6149497 78.35035857 26.64342117 84.75738907 C26.66204732 89.67989727 26.66725318 94.60235425 26.6687851 99.52489471 C26.67181292 101.88678906 26.6798458 104.24868248 26.69297028 106.6105423 C26.71002751 109.91655127 26.70815089 113.22204103 26.70166016 116.52807617 C26.71087494 117.50389145 26.72008972 118.47970673 26.72958374 119.48509216 C26.6924924 125.51699593 25.97646142 129.91001739 21.9230957 134.66967773 C16.6800186 139.06161132 10.90784389 142.2524524 4.90771484 145.49975586 C2.65409342 146.74009685 0.4015138 147.98233236 -1.85009766 149.22631836 C-2.98866211 149.85441406 -4.12722656 150.48250977 -5.30029297 151.12963867 C-10.39884352 153.97206205 -15.43476835 156.91743829 -20.46728516 159.87475586 C-28.88785266 164.81112068 -37.32817356 169.71082153 -45.7984314 174.56134033 C-47.01896612 175.2605258 -48.23905219 175.96049516 -49.45864868 176.66131592 C-70.10201874 188.51988431 -70.10201874 188.51988431 -79.65478516 186.99975586 C-82.20556641 185.85473633 -82.20556641 185.85473633 -84.77978516 184.36694336 C-85.73731689 183.82215332 -86.69484863 183.27736328 -87.68139648 182.71606445 C-89.15322388 181.8664917 -89.15322388 181.8664917 -90.65478516 180.99975586 C-92.55299844 179.9449212 -94.45274712 178.89284492 -96.35400391 177.84350586 C-108.1177239 171.28443553 -119.81917692 164.63306848 -131.4230957 157.79467773 C-137.76522845 154.0648613 -144.17516885 150.48527759 -150.65478516 146.99975586 C-147.44739954 143.77557569 -144.20994137 140.58623036 -140.94607544 137.41929626 C-138.51731898 135.05761884 -136.10196015 132.68242603 -133.68701172 130.30664062 C-132.40914585 129.05412924 -131.12686053 127.80611183 -129.84033203 126.5625 C-127.97764446 124.7602124 -126.13136378 122.9424638 -124.28759766 121.12084961 C-123.7075296 120.56658798 -123.12746155 120.01232635 -122.52981567 119.44126892 C-120.74355627 117.71460894 -120.74355627 117.71460894 -118.65478516 114.99975586 C-119.09577313 111.48434936 -120.8217601 108.66513327 -122.48681641 105.57128906 C-126.47391017 98.09989096 -129.19791652 91.56361273 -129.65478516 82.99975586 C-129.70103027 82.24033691 -129.74727539 81.48091797 -129.79492188 80.69848633 C-130.68961313 64.09416281 -128.55850757 49.82259837 -118.65478516 35.99975586 C-118.25517578 35.42999023 -117.85556641 34.86022461 -117.44384766 34.27319336 C-109.8438111 24.32683679 -95.81704431 17.03641892 -83.65478516 14.99975586 C-67.33648817 13.38919768 -52.99268364 15.28997503 -39.60791016 25.35131836 C-37.85896505 26.82742803 -36.23678331 28.34766918 -34.65478516 29.99975586 C-31.83992936 28.72221545 -29.84120662 27.41948147 -27.7097168 25.18652344 C-27.16557632 24.62286575 -26.62143585 24.05920807 -26.06080627 23.47846985 C-25.48467087 22.87318954 -24.90853546 22.26790924 -24.31494141 21.64428711 C-23.07529559 20.36962591 -21.83504273 19.09555485 -20.59423828 17.82202148 C-18.64773948 15.81345541 -16.70626437 13.80070862 -14.77514648 11.77734375 C-12.90595405 9.8236734 -11.01852676 7.88924069 -9.12744141 5.95678711 C-8.55333023 5.34543411 -7.97921906 4.73408112 -7.38771057 4.10420227 C-3.33436771 -0.00030664 -3.33436771 -0.00030664 0 0 Z " fill="#233DFE" transform="translate(212.65478515625,80.000244140625)"/>
    <path d="M0 0 C10.28456667 7.93088475 17.07880272 18.19892243 20.5625 30.75 C20.5625 32.73 20.5625 34.71 20.5625 36.75 C10.0025 36.75 -0.5575 36.75 -11.4375 36.75 C-12.0975 34.44 -12.7575 32.13 -13.4375 29.75 C-16.54340676 25.26369023 -19.21135997 22.42983072 -24.4375 20.75 C-31.27595742 19.94652589 -37.97002648 19.6291826 -43.71875 23.85546875 C-51.96516107 32.94526277 -53.14619671 44.00714495 -52.62109375 55.65917969 C-51.94006304 63.41496024 -49.26842083 72.29325591 -43.4375 77.75 C-38.45714145 81.54780766 -33.37603217 82.4486682 -27.19140625 82.19921875 C-22.60452561 81.45100418 -19.0204822 79.69206082 -15.4375 76.75 C-12.77433983 72.8384835 -12.15573931 69.36083986 -11.4375 64.75 C9.09441489 64.55851064 9.09441489 64.55851064 18.5625 65.75 C19.4164969 76.68590477 16.46598725 85.34770669 9.4140625 93.75 C0.19515465 103.70797642 -12.20023784 109.24168329 -25.8203125 109.91796875 C-44.59762864 110.01597144 -59.14046156 105.62722383 -73.43359375 92.984375 C-85.64524703 80.47354982 -87.85396577 63.40609812 -87.87915039 46.75610352 C-87.59061181 34.2074821 -83.7800805 22.99820059 -76.4375 12.75 C-76.03789063 12.18023437 -75.63828125 11.61046875 -75.2265625 11.0234375 C-58.19285258 -11.26900166 -22.66421216 -14.7317379 0 0 Z " fill="#F1F3FB" transform="translate(170.4375,103.25)"/>
    <path d="M0 0 C1.18625977 0.01015137 1.18625977 0.01015137 2.39648438 0.02050781 C8.16189713 0.12236186 13.58396234 0.55555263 19.125 2.25 C19.95128906 2.49492188 20.77757812 2.73984375 21.62890625 2.9921875 C31.21312661 6.29910933 37.71928968 12.42212887 42.34765625 21.3671875 C43.125 23.25 43.125 23.25 43.125 25.25 C40.71578898 26.91837122 38.32651477 28.44386588 35.8125 29.9375 C35.12220703 30.36611328 34.43191406 30.79472656 33.72070312 31.23632812 C33.05361328 31.63658203 32.38652344 32.03683594 31.69921875 32.44921875 C31.08651123 32.81877686 30.47380371 33.18833496 29.8425293 33.5690918 C28.125 34.25 28.125 34.25 25.125 33.25 C23.80078125 31.32421875 23.80078125 31.32421875 22.4375 28.9375 C18.73873399 23.12119046 14.45964973 21.36154991 8.125 19.25 C-0.84043803 18.43390031 -8.51846945 18.65470144 -15.875 24.25 C-23.43692085 31.77981078 -25.25168106 40.10622709 -25.28515625 50.46679688 C-25.27355469 51.69462891 -25.26195312 52.92246094 -25.25 54.1875 C-25.26160156 55.41146484 -25.27320313 56.63542969 -25.28515625 57.89648438 C-25.25426943 67.46625145 -24.10890659 75.66822172 -17.875 83.25 C-9.62411616 90.36513464 -2.43365671 90.89819653 8.14794922 90.42919922 C13.78729501 89.91805081 16.9488131 87.39945538 20.875 83.5625 C23.69513605 79.84374433 25.40989784 75.56170935 27.125 71.25 C31.0995504 71.94849772 34.39074098 73.87892769 37.875 75.8125 C38.47699219 76.14185547 39.07898438 76.47121094 39.69921875 76.81054688 C41.17670503 77.6196465 42.65116036 78.43427662 44.125 79.25 C41.60431004 90.04032193 36.29566494 97.88865847 27.125 104.25 C18.52354837 108.52481783 11.05922188 109.47600891 1.5625 109.5625 C0.01079102 109.60600586 0.01079102 109.60600586 -1.57226562 109.65039062 C-13.56898979 109.74804711 -24.803647 105.50758619 -33.84375 97.5078125 C-47.38905784 83.19018448 -48.35743791 65.35097207 -47.96826172 46.7734375 C-47.42706852 32.13005303 -41.70926262 20.45848706 -31.0625 10.5 C-21.97194926 2.9216105 -11.67245767 -0.14503054 0 0 Z " fill="#223CFC" transform="translate(332.875,94.75)"/>
    <path d="M0 0 C7.16793486 5.60587981 10.24099493 12.20497463 12 21 C12 27.27 12 33.54 12 40 C-5.49 40 -22.98 40 -41 40 C-39.18142805 50.02446074 -39.18142805 50.02446074 -33.1875 57.375 C-27.03836425 60.48881768 -18.91342983 60.10880512 -12.421875 58.26953125 C-8.23612717 56.37044196 -5.91365193 54.30571683 -4 50 C0.2829452 50.5479083 2.85135641 52.02432804 6.3125 54.5625 C7.63701172 55.52349609 7.63701172 55.52349609 8.98828125 56.50390625 C9.65214844 56.99761719 10.31601562 57.49132812 11 58 C9.73447723 64.32761383 5.8965791 68.10102615 1 72 C-1.91701878 73.61850486 -4.87325853 74.85179826 -8 76 C-8.99 76.495 -8.99 76.495 -10 77 C-13.49364367 77.26962171 -16.99713228 77.23170826 -20.5 77.25 C-21.45648437 77.270625 -22.41296875 77.29125 -23.3984375 77.3125 C-34.49101016 77.37262235 -43.732758 74.61529506 -52 67 C-61.91521538 54.82963225 -63.13882935 42.13694008 -62 27 C-60.58530534 16.97924616 -55.92662396 7.52780194 -47.84765625 1.2421875 C-33.71299124 -8.26061054 -14.56059351 -9.33745476 0 0 Z " fill="#223CFB" transform="translate(629,127)"/>
    <path d="M0 0 C6.6 0 13.2 0 20 0 C20 14.19 20 28.38 20 43 C22.64 40.69 25.28 38.38 28 36 C35.50052618 30.61713027 42.95571431 29.90057995 52 31 C58.04347206 32.38090087 62.96120573 34.72295258 66.6519165 39.82914734 C72.03810167 48.50265638 72.55459695 57.22632459 72.390625 67.19921875 C72.38496521 68.51541702 72.37930542 69.8316153 72.37347412 71.18769836 C72.35836726 74.64846475 72.3192204 78.10853511 72.2746582 81.56903076 C72.2333776 85.11558625 72.21539394 88.66225672 72.1953125 92.20898438 C72.15270667 99.1396337 72.08248455 106.06971155 72 113 C65.4 113 58.8 113 52 113 C51.98541748 111.36530762 51.97083496 109.73061523 51.95581055 108.04638672 C51.89778522 101.97438822 51.82055153 95.9027589 51.73754883 89.83105469 C51.70431962 87.20448809 51.6762815 84.57785043 51.65356445 81.95117188 C51.61998272 78.17286939 51.56766247 74.39521695 51.51171875 70.6171875 C51.50532883 69.44509735 51.4989389 68.2730072 51.49235535 67.06539917 C51.38550789 59.1015504 51.38550789 59.1015504 48 52 C43.30110167 48.64364405 38.59329263 48.13274731 33 49 C27.67983817 50.84640911 24.6976221 54.12352928 22 59 C21.01896712 61.94309863 20.84778313 63.9496903 20.79467773 67.0222168 C20.77473251 68.04304855 20.75478729 69.06388031 20.73423767 70.11564636 C20.70916893 71.76576469 20.70916893 71.76576469 20.68359375 73.44921875 C20.66281265 74.5769722 20.64203156 75.70472565 20.62062073 76.86665344 C20.55517153 80.4735396 20.49626156 84.08049929 20.4375 87.6875 C20.39431039 90.13086702 20.35069596 92.57422656 20.30664062 95.01757812 C20.1994948 101.01164316 20.09821409 107.00578224 20 113 C13.4 113 6.8 113 0 113 C0 75.71 0 38.42 0 0 Z " fill="#223CFC" transform="translate(393,90)"/>
    <path d="M0 0 C4.97589064 4.02810194 7.40555901 7.86152006 8.625 14.125 C8.92627636 17.53761651 8.97258736 20.93872626 9.00390625 24.36328125 C9.02090073 25.32525925 9.0378952 26.28723724 9.05540466 27.27836609 C9.10825527 30.33134522 9.14873013 33.38431219 9.1875 36.4375 C9.23144311 39.50847516 9.2780888 42.57934638 9.33030701 45.65019226 C9.3622477 47.5565352 9.38914292 49.4629706 9.41053772 51.36946106 C9.42402756 52.22762924 9.4375174 53.08579742 9.45141602 53.9699707 C9.46092789 54.72607132 9.47043976 55.48217194 9.48023987 56.26118469 C9.51451953 58.21788103 9.51451953 58.21788103 10.625 60.125 C12.52033342 60.59023063 12.52033342 60.59023063 14.6875 60.75 C16.6365625 60.935625 16.6365625 60.935625 18.625 61.125 C19.12 68.055 19.12 68.055 19.625 75.125 C15.31902281 77.2779886 12.99928444 77.45260195 8.25 77.5 C6.96351563 77.52835937 5.67703125 77.55671875 4.3515625 77.5859375 C0.04250291 77.05295109 -2.05187171 75.87126478 -5.375 73.125 C-7.125 69.9375 -7.125 69.9375 -8.375 67.125 C-9.365 66.63 -9.365 66.63 -10.375 66.125 C-10.58125 66.846875 -10.7875 67.56875 -11 68.3125 C-13.18617786 72.78422743 -16.49115791 75.34462937 -21.0625 77.23828125 C-29.37598268 79.46370645 -39.55273328 79.84646928 -47.1875 75.5 C-52.6805281 71.5271138 -55.90193275 66.75380264 -57.375 60.125 C-58.06206519 52.75466431 -58.1251562 46.12661378 -53.375 40.125 C-45.22054427 31.8746095 -33.96408071 29.81951276 -22.953125 27.93359375 C-19.05584125 27.0528757 -15.95185652 25.89096057 -12.375 24.125 C-10.96058126 21.29616253 -11.05599668 19.25123255 -11.375 16.125 C-14.56593913 12.93406087 -18.01004709 11.96517079 -22.4375 11.8125 C-29.72780875 11.91918745 -35.89930977 14.53270062 -41.25 19.4375 C-41.76304687 19.96988281 -42.27609375 20.50226563 -42.8046875 21.05078125 C-44.375 22.125 -44.375 22.125 -46.3359375 22.140625 C-49.36207009 20.6333559 -50.40894142 18.43359801 -52.125 15.5625 C-52.73859375 14.55058594 -53.3521875 13.53867188 -53.984375 12.49609375 C-54.44328125 11.71363281 -54.9021875 10.93117187 -55.375 10.125 C-49.52138673 1.92994142 -41.40737244 -2.29705461 -31.65234375 -4.40625 C-20.42613035 -6.01190627 -10.00246273 -5.55692374 0 0 Z " fill="#223CFC" transform="translate(538.375,125.875)"/>
    <path d="M0 0 C6.93 0 13.86 0 21 0 C24.19815845 7.35514584 27.03708512 14.76163096 29.69921875 22.32421875 C30.18480759 23.70252365 30.18480759 23.70252365 30.6802063 25.1086731 C32.03053611 28.95038815 33.37633755 32.79363799 34.71508789 36.6394043 C35.70346614 39.47410999 36.70070295 42.30557106 37.69921875 45.13671875 C38.0013176 46.01261154 38.30341644 46.88850433 38.6146698 47.79093933 C39.04070244 48.99403496 39.04070244 48.99403496 39.4753418 50.22143555 C39.72229294 50.92914597 39.96924408 51.63685638 40.22367859 52.36601257 C40.89025557 54.20178035 40.89025557 54.20178035 43 55 C43.19619934 53.91872833 43.19619934 53.91872833 43.3963623 52.81561279 C43.97940716 50.09605339 44.74804125 47.5765936 45.65820312 44.95019531 C45.99525269 43.97278381 46.33230225 42.99537231 46.67956543 41.98834229 C47.04312134 40.94547058 47.40667725 39.90259888 47.78125 38.828125 C48.15479614 37.74996521 48.52834229 36.67180542 48.91320801 35.56097412 C49.70176942 33.28765247 50.4919684 31.01489828 51.28369141 28.74267578 C52.49978267 25.25062407 53.70922489 21.75631956 54.91796875 18.26171875 C55.68449971 16.05454989 56.45141349 13.84751393 57.21875 11.640625 C57.58230591 10.58965637 57.94586182 9.53868774 58.32043457 8.45587158 C58.65748413 7.49106873 58.99453369 6.52626587 59.34179688 5.53222656 C59.63856323 4.67904846 59.93532959 3.82587036 60.24108887 2.94683838 C61 1 61 1 62 0 C63.4887186 -0.08669432 64.981445 -0.10703494 66.47265625 -0.09765625 C67.37177734 -0.09443359 68.27089844 -0.09121094 69.19726562 -0.08789062 C70.61555664 -0.07532227 70.61555664 -0.07532227 72.0625 -0.0625 C73.4865918 -0.05573242 73.4865918 -0.05573242 74.93945312 -0.04882812 C77.29303369 -0.03700109 79.64647581 -0.01968094 82 0 C79.85757097 7.55849488 77.27111782 14.8935155 74.5 22.2421875 C73.85135483 23.97365273 73.85135483 23.97365273 73.18960571 25.74009705 C72.0343693 28.82043001 70.87606149 31.89957848 69.71533966 34.97784805 C68.99728216 36.88220799 68.27991118 38.78682535 67.56268311 40.6914978 C64.78243927 48.07291679 61.99359354 55.45104719 59.20007324 62.82745361 C58.14745381 65.61018708 57.09842408 68.39422262 56.05175781 71.17919922 C54.59145416 75.06294081 53.11184709 78.93884293 51.625 82.8125 C51.24085938 83.83778809 50.85671875 84.86307617 50.4609375 85.91943359 C46.31384461 96.5737387 40.99359321 106.75544398 30.28515625 111.80932617 C25.07211762 114.00017289 20.4886087 114.43083071 14.875 114.3125 C13.71677734 114.31733398 13.71677734 114.31733398 12.53515625 114.32226562 C7.98023047 114.27958744 4.28475367 113.71800826 0 112 C0.14213297 110.10388566 0.28886907 108.20811606 0.4375 106.3125 C0.51871094 105.25675781 0.59992187 104.20101562 0.68359375 103.11328125 C0.96451681 100.34913703 1.40156852 97.71054259 2 95 C3.30195312 95.02320313 4.60390625 95.04640625 5.9453125 95.0703125 C7.67186924 95.08907942 9.39843221 95.10727863 11.125 95.125 C11.9809375 95.14175781 12.836875 95.15851563 13.71875 95.17578125 C18.519905 95.21271321 22.54947064 95.04865637 27 93 C28.36784258 90.74858021 28.36784258 90.74858021 29 88 C29.42893555 87.1946582 29.85787109 86.38931641 30.29980469 85.55957031 C31.41356809 79.89755134 29.06048964 75.54015627 26.953125 70.296875 C26.5078949 69.14624573 26.06266479 67.99561646 25.60394287 66.81011963 C24.41107158 63.73716086 23.20234674 60.67109442 21.9854126 57.60760498 C20.79119095 54.59107781 19.61723452 51.56670354 18.44140625 48.54296875 C16.5782564 43.75895098 14.70610365 38.97861915 12.82617188 34.20117188 C9.95592472 26.89966594 7.11863096 19.58599436 4.296875 12.265625 C3.86344788 11.14508728 3.43002075 10.02454956 2.98345947 8.87005615 C2.59027527 7.84849426 2.19709106 6.82693237 1.79199219 5.77441406 C1.44465027 4.87337952 1.09730835 3.97234497 0.73944092 3.04400635 C0 1 0 1 0 0 Z " fill="#223CFB" transform="translate(782,123)"/>
    <path d="M0 0 C6.93 0 13.86 0 21 0 C25.45068134 10.21496183 29.1363617 20.644409 32.78588867 31.16699219 C33.82284395 34.15480435 34.86711272 37.13999205 35.91210938 40.125 C36.57334837 42.02328718 37.23417129 43.92171935 37.89453125 45.8203125 C38.20695267 46.71291779 38.51937408 47.60552307 38.84126282 48.525177 C39.12543564 49.34718597 39.40960846 50.16919495 39.70239258 51.01611328 C39.95378494 51.73936798 40.20517731 52.46262268 40.46418762 53.20779419 C41 55 41 55 41 57 C41.66 57 42.32 57 43 57 C43.24927246 55.74968994 43.49854492 54.49937988 43.75537109 53.21118164 C45.02494598 47.51393135 46.93795621 42.10609743 48.9140625 36.62109375 C49.28856537 35.56841812 49.66306824 34.51574249 50.04891968 33.4311676 C51.23596637 30.09814375 52.43035717 26.76780776 53.625 23.4375 C54.43538406 21.16618976 55.24528486 18.89470704 56.0546875 16.62304688 C58.03087421 11.08002053 60.01364783 5.53939124 62 0 C68.93 0 75.86 0 83 0 C77.5709821 15.64144075 71.94556658 31.20388638 66.25 46.75 C65.39180757 49.09631045 64.53373404 51.44266441 63.67578125 53.7890625 C62.85166889 56.04170559 62.02745394 58.29431116 61.203125 60.546875 C60.82496643 61.58028015 60.44680786 62.6136853 60.05718994 63.67840576 C59.69961609 64.65432678 59.34204224 65.6302478 58.97363281 66.63574219 C58.66387512 67.48142761 58.35411743 68.32711304 58.03497314 69.19842529 C56.70305353 72.80380608 55.34955611 76.4011837 54 80 C45.75 80 37.5 80 29 80 C27.74445312 76.55949219 26.48890625 73.11898437 25.1953125 69.57421875 C23.5055039 64.94520456 21.81525886 60.31634979 20.125 55.6875 C19.69126068 54.49949799 19.25752136 53.31149597 18.81063843 52.0874939 C13.44513845 37.39368521 8.07440034 22.70229648 2.59228516 8.05151367 C2.23827637 7.10252197 1.88426758 6.15353027 1.51953125 5.17578125 C1.22151611 4.38083252 0.92350098 3.58588379 0.61645508 2.7668457 C0 1 0 1 0 0 Z " fill="#223CFC" transform="translate(649,123)"/>
    <path d="M0 0 C6.6 0 13.2 0 20 0 C20.01981934 2.83706543 20.03963867 5.67413086 20.06005859 8.59716797 C20.12685594 17.95306313 20.2044967 27.30884542 20.28752708 36.66460991 C20.33755112 42.33904432 20.38388047 48.01345956 20.421875 53.68798828 C20.45865082 59.16046873 20.50498944 64.63279106 20.55806351 70.10513687 C20.57664854 72.19677085 20.59174117 74.28843877 20.60334396 76.38012314 C20.62013632 79.30159577 20.64915387 82.222703 20.68115234 85.14404297 C20.68331253 86.01582184 20.68547272 86.88760071 20.68769836 87.78579712 C20.54615078 92.37091487 20.54615078 92.37091487 23 96 C25.65537372 96.56520003 28.29144713 96.73788198 31 97 C32.06723961 100.46222615 32.10173486 103.64039266 32.0625 107.25 C32.05347656 108.32765625 32.04445313 109.4053125 32.03515625 110.515625 C32.02355469 111.33546875 32.01195312 112.1553125 32 113 C26.40451746 115.79774127 16.14808132 114.99295917 10.23828125 113.12890625 C5.06253769 110.1220457 2.14077275 105.77380611 0.40985966 100.04774857 C-0.01829828 97.90857779 -0.12304998 95.9789871 -0.12025452 93.79852295 C-0.12162918 92.96843719 -0.12300385 92.13835144 -0.12442017 91.28311157 C-0.11902725 89.93012466 -0.11902725 89.93012466 -0.11352539 88.54980469 C-0.11367142 87.59337067 -0.11381744 86.63693665 -0.1139679 85.65151978 C-0.11327148 82.49161508 -0.10549174 79.3317694 -0.09765625 76.171875 C-0.09579111 73.98040804 -0.09436766 71.78894067 -0.09336853 69.59747314 C-0.08955094 63.83039193 -0.07972709 58.06333591 -0.06866455 52.29626465 C-0.05843416 46.4110549 -0.05386742 40.52584108 -0.04882812 34.640625 C-0.03810417 23.09373715 -0.02051347 11.54687461 0 0 Z " fill="#223CFD" transform="translate(745,90)"/>
    <path d="M0 0 C3.54486265 2.10598851 6.36157257 4.4123998 8.4921875 8.0078125 C7.01092393 11.44711833 5.06791304 13.67735588 2.421875 16.30859375 C1.6071875 17.12134766 0.7925 17.93410156 -0.046875 18.77148438 C-1.32691406 20.0331543 -1.32691406 20.0331543 -2.6328125 21.3203125 C-3.46296875 22.14982422 -4.293125 22.97933594 -5.1484375 23.83398438 C-9.57972219 28.23401392 -14.09390461 32.46914662 -18.82861328 36.5402832 C-21.3993104 38.78693345 -23.72004088 41.24400765 -26.0625 43.72265625 C-27.5078125 45.0078125 -27.5078125 45.0078125 -29.5078125 45.0078125 C-33.33754784 33.51860649 -32.8965977 20.86022714 -27.5078125 10.0078125 C-22.08566686 -0.44918266 -11.13927399 -4.40712709 0 0 Z " fill="#080D34" transform="translate(148.5078125,123.9921875)"/>
    <path d="M0 0 C0.66 0 1.32 0 2 0 C2.0816082 2.37570543 2.14077222 4.74855841 2.1875 7.125 C2.21263672 7.79015625 2.23777344 8.4553125 2.26367188 9.140625 C2.3502828 15.03016765 0.82469084 18.89020122 -3 23.3125 C-6.95761015 26.65173357 -11.37543522 26.38557971 -16.328125 26.359375 C-19 26 -19 26 -22.125 23.625 C-25.07718667 19.49193867 -25.43435309 17.12536642 -25 12 C-22.68585085 7.75739322 -19.97648949 6.19893601 -15.43359375 4.6875 C-11.46219161 3.56556296 -7.46044869 2.58403436 -3.44140625 1.6484375 C-1.06989387 1.23719323 -1.06989387 1.23719323 0 0 Z " fill="#050B34" transform="translate(526,163)"/>
    <path d="M0 0 C3.21709617 2.35397281 4.80142199 4.2851102 6.5625 7.875 C6.5625 10.515 6.5625 13.155 6.5625 15.875 C-4.3275 15.875 -15.2175 15.875 -26.4375 15.875 C-25.25801585 8.79809509 -23.89478964 4.83080196 -18.375 0.4375 C-12.58921862 -2.45539069 -5.99492117 -1.9619742 0 0 Z " fill="#050A32" transform="translate(614.4375,138.125)"/>
</svg>