<?xml version="1.0" encoding="UTF-8"?>
<!DOCTYPE svg PUBLIC "-//W3C//DTD SVG 1.1//EN" "http://www.w3.org/Graphics/SVG/1.1/DTD/svg11.dtd">
<svg xmlns="http://www.w3.org/2000/svg" version="1.1" width="995px" height="290px" style="shape-rendering:geometricPrecision; text-rendering:geometricPrecision; image-rendering:optimizeQuality; fill-rule:evenodd; clip-rule:evenodd" xmlns:xlink="http://www.w3.org/1999/xlink">
    <g><path style="opacity:0.919" fill="#38b6ff" d="M 338.5,28.5 C 389.892,25.151 428.226,45.651 453.5,90C 439.167,90.6667 424.833,90.6667 410.5,90C 381.38,61.5203 348.713,56.5203 312.5,75C 277.867,99.6662 267.7,132.166 282,172.5C 297.225,202.02 321.558,217.353 355,218.5C 376.965,216.766 395.465,207.933 410.5,192C 531.166,191.5 651.833,191.333 772.5,191.5C 772.5,196.5 772.5,201.5 772.5,206.5C 663.166,206.333 553.833,206.5 444.5,207C 411.627,247.732 369.627,261.732 318.5,249C 278.05,234.883 252.55,207.049 242,165.5C 232.981,107.704 254.148,65.204 305.5,38C 316.242,33.4692 327.242,30.3026 338.5,28.5 Z M 340.5,42.5 C 373.837,39.8857 402.17,50.3857 425.5,74C 421.167,74.6667 416.833,74.6667 412.5,74C 380.724,48.7369 346.391,44.7369 309.5,62C 274.161,83.1812 258.994,114.348 264,155.5C 274.547,201.936 303.547,226.936 351,230.5C 374.893,230.539 395.726,222.706 413.5,207C 417.5,206.333 421.5,206.333 425.5,207C 395.559,237.736 359.893,246.736 318.5,234C 280.489,218.494 258.989,190.327 254,149.5C 252.454,103.408 272.288,70.2412 313.5,50C 322.417,46.6909 331.417,44.1909 340.5,42.5 Z"/></g>
    <g><path style="opacity:0.877" fill="#fefffe" d="M 572.5,85.5 C 575.325,85.0807 577.491,86.0807 579,88.5C 584.59,101.601 589.59,114.934 594,128.5C 594.995,131.126 595.328,133.793 595,136.5C 590.206,138.414 587.206,136.747 586,131.5C 585.187,129.564 584.687,127.564 584.5,125.5C 578.132,125.17 571.798,125.504 565.5,126.5C 564.119,130.146 562.452,133.646 560.5,137C 554.92,138.261 553.087,136.094 555,130.5C 559.377,114.858 565.21,99.8582 572.5,85.5 Z M 574.5,99.5 C 577.072,105.216 579.072,111.216 580.5,117.5C 576.445,117.824 572.445,117.491 568.5,116.5C 570.509,110.805 572.509,105.138 574.5,99.5 Z"/></g>
    <g><path style="opacity:0.867" fill="#fefffe" d="M 486.5,86.5 C 491.58,86.2497 496.58,86.7497 501.5,88C 507.59,91.2213 507.756,94.3879 502,97.5C 490.766,91.6222 483.099,94.6222 479,106.5C 476.883,127.744 485.55,134.411 505,126.5C 508.875,127.636 509.541,129.969 507,133.5C 498.194,139.552 489.027,140.052 479.5,135C 469.136,124.996 466.636,113.163 472,99.5C 475.162,93.1641 479.996,88.8308 486.5,86.5 Z"/></g>
    <g><path style="opacity:0.868" fill="#fefffe" d="M 516.5,86.5 C 518.582,86.6243 520.082,87.6243 521,89.5C 521.499,95.4908 521.666,101.491 521.5,107.5C 528.167,107.5 534.833,107.5 541.5,107.5C 541.334,101.824 541.501,96.1569 542,90.5C 544.333,85.1667 546.667,85.1667 549,90.5C 549.667,105.167 549.667,119.833 549,134.5C 548.671,138.04 546.838,139.206 543.5,138C 542.874,137.25 542.374,136.416 542,135.5C 541.5,128.842 541.334,122.175 541.5,115.5C 534.833,115.5 528.167,115.5 521.5,115.5C 521.666,122.175 521.5,128.842 521,135.5C 519.776,138.473 517.776,139.14 515,137.5C 514.667,136.5 514.333,135.5 514,134.5C 513.333,120.167 513.333,105.833 514,91.5C 514.366,89.5483 515.199,87.8816 516.5,86.5 Z"/></g>
    <g><path style="opacity:0.866" fill="#fefffe" d="M 609.5,86.5 C 617.228,86.1885 624.895,86.6885 632.5,88C 633.833,90 633.833,92 632.5,94C 624.784,94.1986 617.118,94.6986 609.5,95.5C 608.508,99.7828 608.174,104.116 608.5,108.5C 613.844,108.334 619.177,108.501 624.5,109C 627.556,112.445 626.89,114.778 622.5,116C 617.845,116.499 613.179,116.666 608.5,116.5C 608.174,120.884 608.508,125.217 609.5,129.5C 617.118,130.301 624.784,130.801 632.5,131C 635.371,133.84 635.037,136.174 631.5,138C 623.167,138.667 614.833,138.667 606.5,138C 604.714,137.215 603.214,136.049 602,134.5C 599.127,120.604 598.794,106.604 601,92.5C 601.309,91.2341 601.809,90.0674 602.5,89C 604.927,88.0977 607.26,87.2644 609.5,86.5 Z"/></g>
    <g><path style="opacity:0.886" fill="#fefffe" d="M 682.5,86.5 C 684.39,86.2965 685.89,86.9632 687,88.5C 688.573,102.186 688.74,115.853 687.5,129.5C 693.791,129.827 700.124,129.993 706.5,130C 707.935,132.267 707.602,134.267 705.5,136C 697.986,138.301 690.319,138.968 682.5,138C 682,137.5 681.5,137 681,136.5C 680.333,120.5 680.333,104.5 681,88.5C 681.717,87.9558 682.217,87.2891 682.5,86.5 Z"/></g>
    <g><path style="opacity:0.87" fill="#fefffe" d="M 637.5,87.5 C 639.467,87.2606 641.301,87.5939 643,88.5C 647.924,100.271 652.257,112.271 656,124.5C 660.136,112.424 664.47,100.424 669,88.5C 671,87.1667 673,87.1667 675,88.5C 674.804,96.1068 673.137,103.44 670,110.5C 667.667,116.833 665.333,123.167 663,129.5C 661.776,132.796 659.942,135.629 657.5,138C 655.097,138.63 653.263,137.797 652,135.5C 644.177,120.214 639.344,104.214 637.5,87.5 Z"/></g>
    <g><path style="opacity:0.862" fill="#fefffe" d="M 710.5,87.5 C 713.97,86.8748 716.804,87.8748 719,90.5C 722.333,95.8333 725.667,101.167 729,106.5C 733.043,100.247 737.21,94.0803 741.5,88C 749.024,87.1188 750.524,89.9521 746,96.5C 741.754,101.991 737.754,107.658 734,113.5C 733.739,121.776 732.906,129.943 731.5,138C 729.299,138.825 727.466,138.325 726,136.5C 725.667,129.167 725.333,121.833 725,114.5C 719.071,106.972 713.905,98.9717 709.5,90.5C 709.685,89.4163 710.018,88.4163 710.5,87.5 Z"/></g>
    <g><path style="opacity:0.613" fill="#fefffe" d="M 477.5,149.5 C 481.394,149.11 485.06,149.777 488.5,151.5C 488.167,152.5 487.5,153.167 486.5,153.5C 477.618,150.605 472.618,153.772 471.5,163C 472.76,172.384 477.926,175.551 487,172.5C 487.483,173.448 487.649,174.448 487.5,175.5C 472.205,178.035 466.372,171.702 470,156.5C 471.767,153.228 474.267,150.895 477.5,149.5 Z"/></g>
    <g><path style="opacity:0.663" fill="#fefffe" d="M 505.5,149.5 C 506.496,149.414 507.329,149.748 508,150.5C 508.5,158.159 508.666,165.826 508.5,173.5C 512.226,173.177 515.893,173.511 519.5,174.5C 514.88,175.493 510.214,175.827 505.5,175.5C 505.5,166.833 505.5,158.167 505.5,149.5 Z"/></g>
    <g><path style="opacity:0.863" fill="#fefffe" d="M 537.5,149.5 C 538.825,153.445 539.492,157.778 539.5,162.5C 539.167,166.833 538.833,171.167 538.5,175.5C 537.502,166.859 537.169,158.192 537.5,149.5 Z"/></g>
    <g><path style="opacity:0.672" fill="#fefffe" d="M 559.5,149.5 C 564.167,149.5 568.833,149.5 573.5,149.5C 573.5,150.5 573.5,151.5 573.5,152.5C 569.833,152.5 566.167,152.5 562.5,152.5C 562.5,155.5 562.5,158.5 562.5,161.5C 577.167,162.167 577.167,162.833 562.5,163.5C 562.5,166.833 562.5,170.167 562.5,173.5C 566.226,173.177 569.893,173.511 573.5,174.5C 568.88,175.493 564.214,175.827 559.5,175.5C 559.5,166.833 559.5,158.167 559.5,149.5 Z"/></g>
    <g><path style="opacity:0.674" fill="#fefffe" d="M 592.5,149.5 C 594.017,149.511 595.184,150.177 596,151.5C 600,157.5 604,163.5 608,169.5C 608.5,162.842 608.666,156.175 608.5,149.5C 609.5,149.5 610.5,149.5 611.5,149.5C 611.5,158.167 611.5,166.833 611.5,175.5C 609.61,175.703 608.11,175.037 607,173.5C 603,167.5 599,161.5 595,155.5C 594.831,162.191 594.331,168.858 593.5,175.5C 592.502,166.859 592.169,158.192 592.5,149.5 Z"/></g>
    <g><path style="opacity:0.718" fill="#fefffe" d="M 628.5,149.5 C 634.5,149.5 640.5,149.5 646.5,149.5C 646.5,150.5 646.5,151.5 646.5,152.5C 643.833,152.5 641.167,152.5 638.5,152.5C 637.833,183.167 637.167,183.167 636.5,152.5C 633.428,152.817 630.428,152.484 627.5,151.5C 627.863,150.817 628.196,150.15 628.5,149.5 Z"/></g>
</svg>