<?xml version="1.0" encoding="UTF-8"?>
<svg version="1.1" xmlns="http://www.w3.org/2000/svg" width="995" height="290">
    <path d="M0 0 C1.7156936 1.00281415 3.43140115 2.00560505 5.14779663 3.00721741 C6.33644253 3.70117863 7.52460976 4.39596036 8.71231079 5.09153748 C14.61242252 8.54527239 20.55056806 11.93086064 26.49264526 15.31170654 C30.56225181 17.629301 34.62561017 19.95783978 38.68994141 22.28466797 C40.98544729 23.59801711 43.28200317 24.90953269 45.57958984 26.21923828 C48.86989405 28.09705009 52.15433894 29.98473359 55.4375 31.875 C56.41541504 32.4306665 57.39333008 32.98633301 58.40087891 33.55883789 C73.39139426 42.23054636 73.39139426 42.23054636 76.125 51.25 C76.54776655 54.65836539 76.54557779 58.03326615 76.52905273 61.46459961 C76.53591599 62.46714279 76.54277924 63.46968597 76.54985046 64.50260925 C76.5680884 67.80266655 76.56428517 71.10224708 76.55859375 74.40234375 C76.56315692 76.70488133 76.5684629 79.00741754 76.57447815 81.30995178 C76.58340333 86.13076315 76.58099269 90.9514088 76.57104492 95.7722168 C76.55955528 101.94032229 76.57977026 108.10785528 76.60896206 114.27588558 C76.62733559 119.02950149 76.62702926 123.78298049 76.62132454 128.536623 C76.62117147 130.81033697 76.6272037 133.08406031 76.63961601 135.3577404 C76.65454572 138.54085768 76.64383358 141.72292086 76.62670898 144.90600586 C76.63637695 145.83872314 76.64604492 146.77144043 76.65600586 147.73242188 C76.57956537 154.54118308 75.11000144 160.07740751 70.35351562 165.1328125 C69.75216797 165.54273438 69.15082031 165.95265625 68.53125 166.375 C67.48324219 167.09236328 67.48324219 167.09236328 66.4140625 167.82421875 C62.22251227 170.43499662 57.9510033 172.86971306 53.625 175.25 C51.56558796 176.39827322 49.50701969 177.54806079 47.44921875 178.69921875 C46.39911621 179.28622559 45.34901367 179.87323242 44.26708984 180.47802734 C39.29134431 183.28408493 34.36437103 186.17175064 29.4375 189.0625 C20.9735562 194.01806603 12.49016626 198.93805992 3.9793396 203.81259155 C2.75967411 204.51137559 1.54044334 205.21091902 0.32168579 205.9112854 C-18.34894522 216.63656707 -18.34894522 216.63656707 -23.375 217.1875 C-24.0453125 217.27902344 -24.715625 217.37054688 -25.40625 217.46484375 C-32.08391296 216.88371802 -38.15220308 213.19495004 -43.875 209.9375 C-44.63917236 209.50800049 -45.40334473 209.07850098 -46.19067383 208.63598633 C-53.71432844 204.38648009 -61.16720892 200.01419511 -68.62133789 195.64428711 C-75.64853714 191.52973196 -82.71529594 187.49243671 -89.8125 183.5 C-93.5014976 181.41930868 -97.18905853 179.33610045 -100.875 177.25 C-101.72368652 176.76982422 -102.57237305 176.28964844 -103.44677734 175.79492188 C-105.80327093 174.455804 -108.15269986 173.10515298 -110.5 171.75 C-111.52081665 171.17233887 -111.52081665 171.17233887 -112.56225586 170.58300781 C-118.71780126 167.00005803 -124.30791813 162.43989627 -126.44434738 155.3644228 C-126.88940966 153.17925129 -127.00638584 151.21032518 -127.01544189 148.98173523 C-127.02115204 148.13652313 -127.02686218 147.29131104 -127.03274536 146.42048645 C-127.03386322 145.50144028 -127.03498108 144.5823941 -127.03613281 143.63549805 C-127.04109772 142.66104736 -127.04606262 141.68659668 -127.05117798 140.68261719 C-127.06578272 137.45897719 -127.07259875 134.2353864 -127.078125 131.01171875 C-127.08387775 128.76976012 -127.08963547 126.5278015 -127.09539795 124.2858429 C-127.10590307 119.58419567 -127.11174897 114.88256552 -127.11523438 110.1809082 C-127.12071864 104.16182815 -127.14474747 98.14297436 -127.17320633 92.12396526 C-127.19184657 87.4922266 -127.19703905 82.8605423 -127.19857025 78.2287693 C-127.20159406 76.01004614 -127.2096134 73.79132386 -127.22275543 71.57263756 C-127.23984488 68.46581261 -127.23792844 65.35953867 -127.23144531 62.25268555 C-127.2406601 61.33971207 -127.24987488 60.42673859 -127.2593689 59.48609924 C-127.20970469 51.87328555 -125.44402896 45.76673761 -119.875 40.25 C-116.33933124 37.86475904 -112.65317688 35.77782253 -108.9375 33.6875 C-107.8635498 33.07253662 -106.78959961 32.45757324 -105.68310547 31.82397461 C-102.41878246 29.9569628 -99.1472748 28.10302952 -95.875 26.25 C-94.09437738 25.23295118 -92.31438138 24.21480412 -90.53515625 23.1953125 C-87.14964604 21.25597624 -83.76136264 19.32162922 -80.37109375 17.390625 C-75.22294106 14.45422226 -70.09015786 11.49158612 -64.95898438 8.52563477 C-59.60064399 5.4285664 -54.23842724 2.33824882 -48.875 -0.75 C-48.00214355 -1.25321777 -47.12928711 -1.75643555 -46.22998047 -2.27490234 C-43.98973275 -3.56375629 -41.74581812 -4.84588435 -39.5 -6.125 C-38.87053467 -6.48811279 -38.24106934 -6.85122559 -37.5925293 -7.2253418 C-23.81191492 -15.02681988 -12.25280083 -7.2493697 0 0 Z " fill="#233DFE" transform="translate(163.875,50.75)"/>
    <path d="M0 0 C1.69568667 0.99123722 3.39138834 1.98244945 5.08778381 2.97247314 C6.26773047 3.66140199 7.44719956 4.3511494 8.62620544 5.04168701 C15.53134378 9.08366792 22.48498468 13.04027716 29.4375 17 C31.76734058 18.32740308 34.09668054 19.65567305 36.42578125 20.984375 C37.40716064 21.54350586 38.38854004 22.10263672 39.3996582 22.67871094 C41.99288026 24.17382669 44.56335621 25.70151973 47.125 27.25 C45.82780076 30.10779017 44.4613174 32.16008536 42.23583984 34.36621094 C41.6553891 34.94651062 41.07493835 35.5268103 40.47689819 36.12469482 C39.85288116 36.73838928 39.22886414 37.35208374 38.5859375 37.984375 C37.94508209 38.62240051 37.30422668 39.26042603 36.64395142 39.91778564 C34.60062179 41.94994069 32.55044018 43.97502218 30.5 46 C29.1115214 47.3784453 27.7234951 48.75734636 26.3359375 50.13671875 C22.93751303 53.51311894 19.53292746 56.88319288 16.125 60.25 C13.25441268 58.85637376 10.87180629 57.3662546 8.375 55.375 C-1.33555115 48.01146398 -12.02391821 44.66892022 -24.1875 44.8125 C-25.10394287 44.82079834 -26.02038574 44.82909668 -26.96459961 44.83764648 C-39.60787267 45.15080292 -49.39339693 49.31504208 -59.875 56.25 C-60.48085937 56.64960937 -61.08671875 57.04921875 -61.7109375 57.4609375 C-69.0164491 62.91108107 -73.79403639 71.84866868 -76.875 80.25 C-77.1740625 80.99894531 -77.473125 81.74789062 -77.78125 82.51953125 C-82.71252808 97.01657562 -81.61665676 116.93737642 -74.921875 130.57495117 C-73.85882157 132.65918159 -72.76110456 134.72105948 -71.65234375 136.78125 C-69.17374694 141.61859938 -69.17374694 141.61859938 -68.875 144.25 C-69.87779236 145.9213562 -69.87779236 145.9213562 -71.48022461 147.58154297 C-72.07512192 148.20833954 -72.67001923 148.83513611 -73.28294373 149.48092651 C-73.94109573 150.14464264 -74.59924774 150.80835876 -75.27734375 151.4921875 C-75.9478627 152.17934845 -76.61838165 152.8665094 -77.30921936 153.57449341 C-78.73438492 155.02499942 -80.16644369 156.46875953 -81.60473633 157.90625 C-83.79952543 160.11196087 -85.95127446 162.35441665 -88.10351562 164.6015625 C-89.49232732 166.00504704 -90.88352942 167.40617101 -92.27734375 168.8046875 C-93.23724464 169.81847977 -93.23724464 169.81847977 -94.21653748 170.85275269 C-98.71598064 175.24114292 -98.71598064 175.24114292 -101.99752808 175.26622009 C-104.09012595 174.77928618 -105.91993745 174.13494517 -107.875 173.25 C-108.57786133 172.93909424 -109.28072266 172.62818848 -110.00488281 172.30786133 C-111.72309073 171.2421138 -113.43260343 170.16892298 -115.125 169.0625 C-115.723125 168.70091797 -116.32125 168.33933594 -116.9375 167.96679688 C-121.91442793 164.7681297 -124.71258083 161.06522527 -126.46876144 155.30119038 C-126.89596334 153.14415135 -127.00650959 151.17987108 -127.01544189 148.98173523 C-127.02115204 148.13652313 -127.02686218 147.29131104 -127.03274536 146.42048645 C-127.03386322 145.50144028 -127.03498108 144.5823941 -127.03613281 143.63549805 C-127.04109772 142.66104736 -127.04606262 141.68659668 -127.05117798 140.68261719 C-127.06578272 137.45897719 -127.07259875 134.2353864 -127.078125 131.01171875 C-127.08387775 128.76976012 -127.08963547 126.5278015 -127.09539795 124.2858429 C-127.10590307 119.58419567 -127.11174897 114.88256552 -127.11523438 110.1809082 C-127.12071864 104.16182815 -127.14474747 98.14297436 -127.17320633 92.12396526 C-127.19184657 87.4922266 -127.19703905 82.8605423 -127.19857025 78.2287693 C-127.20159406 76.01004614 -127.2096134 73.79132386 -127.22275543 71.57263756 C-127.23984488 68.46581261 -127.23792844 65.35953867 -127.23144531 62.25268555 C-127.2406601 61.33971207 -127.24987488 60.42673859 -127.2593689 59.48609924 C-127.20970469 51.87328555 -125.44402896 45.76673761 -119.875 40.25 C-116.33933124 37.86475904 -112.65317688 35.77782253 -108.9375 33.6875 C-107.8635498 33.07253662 -106.78959961 32.45757324 -105.68310547 31.82397461 C-102.41878246 29.9569628 -99.1472748 28.10302952 -95.875 26.25 C-94.09437738 25.23295118 -92.31438138 24.21480412 -90.53515625 23.1953125 C-87.14964604 21.25597624 -83.76136264 19.32162922 -80.37109375 17.390625 C-75.22294106 14.45422226 -70.09015786 11.49158612 -64.95898438 8.52563477 C-59.60064399 5.4285664 -54.23842724 2.33824882 -48.875 -0.75 C-48.00214355 -1.25321777 -47.12928711 -1.75643555 -46.22998047 -2.27490234 C-43.98973275 -3.56375629 -41.74581812 -4.84588435 -39.5 -6.125 C-38.87053467 -6.48811279 -38.24106934 -6.85122559 -37.5925293 -7.2253418 C-23.81201641 -15.02676243 -12.252726 -7.24955314 0 0 Z " fill="#050B33" transform="translate(163.875,50.75)"/>
    <path d="M0 0 C10.28456667 7.93088475 17.07880272 18.19892243 20.5625 30.75 C20.5625 32.73 20.5625 34.71 20.5625 36.75 C10.0025 36.75 -0.5575 36.75 -11.4375 36.75 C-12.0975 34.44 -12.7575 32.13 -13.4375 29.75 C-16.54340676 25.26369023 -19.21135997 22.42983072 -24.4375 20.75 C-31.27595742 19.94652589 -37.97002648 19.6291826 -43.71875 23.85546875 C-51.96516107 32.94526277 -53.14619671 44.00714495 -52.62109375 55.65917969 C-51.94006304 63.41496024 -49.26842083 72.29325591 -43.4375 77.75 C-38.45714145 81.54780766 -33.37603217 82.4486682 -27.19140625 82.19921875 C-22.60452561 81.45100418 -19.0204822 79.69206082 -15.4375 76.75 C-12.77433983 72.8384835 -12.15573931 69.36083986 -11.4375 64.75 C9.09441489 64.55851064 9.09441489 64.55851064 18.5625 65.75 C19.4164969 76.68590477 16.46598725 85.34770669 9.4140625 93.75 C0.19515465 103.70797642 -12.20023784 109.24168329 -25.8203125 109.91796875 C-44.59762864 110.01597144 -59.14046156 105.62722383 -73.43359375 92.984375 C-85.64524703 80.47354982 -87.85396577 63.40609812 -87.87915039 46.75610352 C-87.59061181 34.2074821 -83.7800805 22.99820059 -76.4375 12.75 C-76.03789063 12.18023437 -75.63828125 11.61046875 -75.2265625 11.0234375 C-58.19285258 -11.26900166 -22.66421216 -14.7317379 0 0 Z " fill="#F1F3FB" transform="translate(170.4375,103.25)"/>
    <path d="M0 0 C4.53556426 4.75764462 7.23660921 8.35850009 8 15 C5.75693689 16.51136873 3.50657387 18.00904941 1.25 19.5 C0.29867187 20.14388672 0.29867187 20.14388672 -0.671875 20.80078125 C-4.14375043 23.0791995 -5.74424723 24 -10 24 C-11.4921875 22.171875 -11.4921875 22.171875 -12.875 19.75 C-16.13206882 14.50570691 -19.06020927 11.97993024 -25 10 C-34.44699178 9.24938771 -43.16263381 8.89431853 -51 15 C-58.16011683 21.61051298 -59.79942583 30.36898134 -60.31640625 39.76171875 C-60.71136753 51.49643231 -60.36673873 63.11519234 -52.625 72.625 C-47.15286693 78.17898121 -41.36136646 79.94660064 -33.75 80.25 C-27.26002755 80.15281239 -22.0847066 78.37669304 -16.6875 74.8125 C-12.77976718 70.72301217 -10.77400275 66.32200825 -9 61 C-1.56952384 61.16887446 3.84932815 65.13184348 10 69 C6.53154248 80.09906407 1.31055303 89.36438877 -9.12890625 95.1875 C-22.12537845 101.33539642 -37.52580221 102.01127168 -51.2890625 97.9765625 C-65.07133521 93.01176685 -72.70808723 85.56739103 -79.2578125 72.48828125 C-86.4783633 55.88101442 -86.09031594 34.57417585 -79.78125 17.75 C-74.29747468 5.80755596 -65.77417811 -3.18055194 -53.4609375 -7.9921875 C-36.11554233 -13.63078345 -14.22670347 -12.32255578 0 0 Z " fill="#233DFF" transform="translate(368,105)"/>
    <path d="M0 0 C6.93 0 13.86 0 21 0 C21.33 13.86 21.66 27.72 22 42 C24.31 39.69 26.62 37.38 29 35 C37.02295711 29.95330117 45.77335591 29.92953126 55 31 C61.80943561 32.55723223 66.25611765 36.18707171 70 42 C73.69469509 49.50716706 73.38981179 57.2498082 73.29296875 65.44140625 C73.28736186 66.81859369 73.28309694 68.19578718 73.28010559 69.57298279 C73.2687426 73.16843677 73.23935125 76.76351749 73.20599365 80.35882568 C73.17510645 84.03929599 73.16156073 87.7198276 73.14648438 91.40039062 C73.11447141 98.60044894 73.06177568 105.80012426 73 113 C66.07 113 59.14 113 52 113 C51.98541748 111.36530762 51.97083496 109.73061523 51.95581055 108.04638672 C51.89778522 101.97438822 51.82055153 95.9027589 51.73754883 89.83105469 C51.70431962 87.20448809 51.6762815 84.57785043 51.65356445 81.95117188 C51.61998272 78.17286939 51.56766247 74.39521695 51.51171875 70.6171875 C51.50532883 69.44509735 51.4989389 68.2730072 51.49235535 67.06539917 C51.39548925 59.09504395 51.39548925 59.09504395 48 52 C43.31536985 48.87691323 38.48297234 49.42628501 33 50 C27.52094184 52.44600811 25.451831 55.73310377 23 61 C21.74303903 66.49625701 21.7797406 72.03796921 21.68359375 77.6484375 C21.66281265 78.66096588 21.64203156 79.67349426 21.62062073 80.71670532 C21.55548402 83.93607098 21.49640768 87.15551494 21.4375 90.375 C21.39428063 92.56381003 21.35066527 94.75261227 21.30664062 96.94140625 C21.19909793 102.29419191 21.09975776 107.64704098 21 113 C14.07 113 7.14 113 0 113 C0 75.71 0 38.42 0 0 Z " fill="#233DFF" transform="translate(392,90)"/>
    <path d="M0 0 C7.26 0 14.52 0 22 0 C26.49912694 10.12303562 26.49912694 10.12303562 27.90698242 14.13671875 C28.38218575 15.4822583 28.38218575 15.4822583 28.86698914 16.85498047 C29.35628654 18.25707764 29.35628654 18.25707764 29.85546875 19.6875 C30.20257401 20.67121582 30.54967926 21.65493164 30.90730286 22.66845703 C32.00416315 25.77776564 33.09630232 28.88870002 34.1875 32 C35.28970398 35.13975685 36.39299 38.27911136 37.49983215 41.41723633 C38.18595628 43.36270829 38.86937369 45.30913734 39.54985046 47.2565918 C39.8571962 48.12840088 40.16454193 49.00020996 40.48120117 49.8984375 C40.75115402 50.66849121 41.02110687 51.43854492 41.29924011 52.23193359 C41.86270835 53.99498136 41.86270835 53.99498136 43 55 C49.27 36.85 55.54 18.7 62 0 C69.26 0 76.52 0 84 0 C83.25616096 3.7191952 82.46262149 6.72226932 81.14916992 10.21630859 C80.76713409 11.23805679 80.38509827 12.25980499 79.9914856 13.31251526 C79.57535004 14.4133696 79.15921448 15.51422394 78.73046875 16.6484375 C78.29789764 17.80161972 77.86532654 18.95480194 77.41964722 20.14292908 C76.25364831 23.24807195 75.08414252 26.35184096 73.91237259 29.45480728 C73.1877082 31.37444848 72.4641381 33.29449852 71.74093628 35.21469116 C68.91616884 42.71433553 66.08367067 50.21101737 63.24621582 57.70587158 C62.13810978 60.63493373 61.03263369 63.56496479 59.92871094 66.49560547 C58.55279697 70.14687511 57.16931132 73.79513739 55.77651978 77.44000244 C55.08941535 79.24191522 54.40918958 81.04644638 53.72924805 82.85107422 C49.09788503 94.87444173 43.85207186 107.26336058 31.8125 113.4375 C22.20090814 117.1533216 11.83895129 116.37435849 2 114 C1.34 113.67 0.68 113.34 0 113 C0.3110685 110.93728361 0.62391516 108.87483534 0.9375 106.8125 C1.11152344 105.66394531 1.28554688 104.51539063 1.46484375 103.33203125 C1.91379313 100.53674788 2.42082162 97.77066414 3 95 C3.94875 95.165 4.8975 95.33 5.875 95.5 C13.37342247 96.53217151 20.39030383 97.09801162 27 93 C28.93879987 90.83145795 30.28746229 88.82919383 31 86 C30.50967799 80.4124361 28.96494689 75.7580703 26.89453125 70.61328125 C26.57836349 69.80981262 26.26219574 69.00634399 25.93644714 68.17852783 C24.90193205 65.55377431 23.85712105 62.93324572 22.8125 60.3125 C22.09355624 58.49178844 21.37546709 56.6707392 20.65820312 54.84936523 C19.18117653 51.10074509 17.70069953 47.35351873 16.21728516 43.60742188 C13.0982246 35.7260734 10.0066553 27.83405501 6.92733765 19.93710327 C6.01049476 17.58937359 5.08905595 15.24348434 4.16723633 12.89770508 C3.61128423 11.47485286 3.05552735 10.05192435 2.5 8.62890625 C2.24453903 7.98189758 1.98907806 7.33488892 1.72587585 6.66827393 C0 2.22784857 0 2.22784857 0 0 Z " fill="#233DFF" transform="translate(781,122)"/>
    <path d="M0 0 C7.86090234 5.24966835 12.40496046 12.13987754 14.3125 21.375 C15.44600047 29.06121272 15.91093426 35.72266434 13 43 C-4.16 43 -21.32 43 -39 43 C-35.55155492 54.15852384 -35.55155492 54.15852384 -27.25 60.3125 C-20.15886184 61.81254846 -14.46607217 61.60607871 -8 58 C-4.5013143 54.88398852 -4.5013143 54.88398852 -2 51 C2.07453229 51.62304741 4.89539701 53.76532621 8.25 56.0625 C9.32765625 56.79597656 10.4053125 57.52945313 11.515625 58.28515625 C12.74539063 59.13400391 12.74539063 59.13400391 14 60 C11.31337394 67.51211946 5.99236365 73.12669771 -0.9296875 77.03515625 C-12.30188452 82.3350292 -26.76242317 81.20573836 -38.296875 77.12890625 C-41.60151252 75.74879029 -44.24223192 74.29814007 -47 72 C-47.57105469 71.53078125 -48.14210938 71.0615625 -48.73046875 70.578125 C-58.05563777 62.22722737 -60.29945088 51.08447232 -61 39 C-61.11086918 26.7212388 -58.00266437 15.50664537 -50 6 C-37.82543663 -5.9872624 -14.82472258 -8.66912843 0 0 Z M-36 20 C-37.75088294 23.41839049 -38 25.06384019 -38 29 C-27.44 29 -16.88 29 -6 29 C-6.68514463 19.92804233 -6.68514463 19.92804233 -12 14 C-21.17142772 9.70699128 -29.61133686 12.33360424 -36 20 Z " fill="#233DFF" transform="translate(627,125)"/>
    <path d="M0 0 C0.90814453 -0.020625 1.81628906 -0.04125 2.75195312 -0.0625 C10.42328744 -0.10643033 16.6760037 1.17872886 23.125 5.4375 C28.34788279 10.90330757 30.86628398 17.20954641 31.01782227 24.74316406 C31.0477401 26.06408051 31.0477401 26.06408051 31.07826233 27.41168213 C31.09497482 28.35348328 31.11168732 29.29528442 31.12890625 30.265625 C31.14968735 31.23659119 31.17046844 32.20755737 31.19187927 33.20794678 C31.25718862 36.30522685 31.31617323 39.40259068 31.375 42.5 C31.41820292 44.60157111 31.46181778 46.7031338 31.50585938 48.8046875 C31.61285098 53.95303948 31.7141709 59.10147558 31.8125 64.25 C34.57514289 64.84732819 36.97282769 65.25 39.8125 65.25 C40.8025 73.17 40.8025 73.17 41.8125 81.25 C34.66028022 83.63407326 27.11711686 84.79126404 19.8125 82.125 C16.31517639 79.93917275 14.7386713 77.87120205 12.8125 74.25 C12.8125 73.59 12.8125 72.93 12.8125 72.25 C12.1525 72.25 11.4925 72.25 10.8125 72.25 C10.57273437 73.00796875 10.33296875 73.7659375 10.0859375 74.546875 C8.61091577 77.67790272 7.33419726 78.67152 4.4375 80.5 C3.66664063 81.00015625 2.89578125 81.5003125 2.1015625 82.015625 C-4.38385289 85.51287971 -12.79460711 85.1221656 -19.86328125 83.71875 C-26.37931211 81.70370852 -30.47687809 78.86498087 -34 72.9375 C-37.41390963 65.64512975 -37.41957434 57.49442168 -35.59375 49.72265625 C-33.2197443 43.99646657 -28.61338206 40.90725016 -23.1875 38.25 C-17.55475643 36.09052994 -11.76339215 34.61627459 -5.90234375 33.22265625 C-5.18119385 33.04943848 -4.46004395 32.8762207 -3.71704102 32.69775391 C-2.30752757 32.36394279 -0.89525649 32.04151848 0.51977539 31.73193359 C5.37994654 30.62523349 5.37994654 30.62523349 8.8125 27.25 C9.39583333 24.25 9.39583333 24.25 8.8125 21.25 C5.7556799 18.21460621 3.35460875 17.8180289 -0.875 17.8125 C-9.82585067 18.06264528 -15.75220236 21.47473678 -22.4609375 27.17578125 C-23.31558594 27.70751953 -23.31558594 27.70751953 -24.1875 28.25 C-28.0684456 26.95635147 -28.75439295 25.34296658 -30.9375 21.9375 C-31.57171875 20.97199219 -32.2059375 20.00648438 -32.859375 19.01171875 C-34.1875 16.25 -34.1875 16.25 -34.13671875 14.11328125 C-30.8715556 7.70388692 -22.85312876 4.34838102 -16.44921875 1.9765625 C-10.88149873 0.1879685 -5.82475375 0.03238223 0 0 Z M4.875 44.5625 C1.28056714 45.8129904 -2.29609631 46.75612179 -6 47.625 C-9.40903977 48.55604027 -11.09098531 49.17144153 -13.875 51.4375 C-15.61843267 55.17342715 -16.01384469 58.20009287 -15.1875 62.25 C-13.0630173 65.69312714 -12.03897359 66.96617547 -8.1875 68.25 C-2.93855833 68.64614654 0.36592094 68.11557317 4.8125 65.25 C9.85813119 60.20436881 10.91789933 54.75113827 10.9375 47.8125 C10.90576375 46.29142704 10.86756505 44.77040718 10.8125 43.25 C8.53018745 43.25 7.02733329 43.8035398 4.875 44.5625 Z " fill="#233DFF" transform="translate(517.1875,120.75)"/>
    <path d="M0 0 C7.59 0 15.18 0 23 0 C24.02480469 3.03703125 25.04960938 6.0740625 26.10546875 9.203125 C27.11398546 12.1823079 28.12394199 15.16099906 29.1340332 18.13964844 C29.82889551 20.19122335 30.52228784 22.2432968 31.21411133 24.29589844 C32.21558575 27.26633665 33.22254253 30.23487068 34.23046875 33.203125 C34.53276901 34.10363586 34.83506927 35.00414673 35.14653015 35.9319458 C37.47052875 42.750569 40.16544919 49.3785037 43 56 C43.23581284 55.32792511 43.47162567 54.65585022 43.71458435 53.96340942 C45.93509446 47.63562579 48.15686683 41.30828698 50.38006496 34.98144722 C51.52303805 31.72859929 52.66551905 28.47558027 53.80688477 25.22216797 C55.11849921 21.48353771 56.4322373 17.74565548 57.74609375 14.0078125 C58.15653427 12.83695099 58.56697479 11.66608948 58.98985291 10.45974731 C59.37017166 9.37877777 59.75049042 8.29780823 60.14233398 7.18408203 C60.47764633 6.22921906 60.81295868 5.27435608 61.15843201 4.29055786 C62 2 62 2 63 0 C70.26 0 77.52 0 85 0 C81.62488983 11.25036724 81.62488983 11.25036724 80.24169922 14.97705078 C79.93034027 15.82052567 79.61898132 16.66400055 79.29818726 17.53303528 C78.97033234 18.41158676 78.64247742 19.29013824 78.3046875 20.1953125 C77.95548248 21.13859909 77.60627747 22.08188568 77.24649048 23.05375671 C76.12575213 26.07866201 75.00056528 29.10188786 73.875 32.125 C73.10462348 34.20004183 72.33444169 36.27515597 71.56445312 38.3503418 C69.70766734 43.35203449 67.84700885 48.35227615 65.98522949 53.35211182 C64.85535641 56.38874196 63.72889429 59.42662486 62.603302 62.46484375 C61.57149364 65.24837353 60.53578964 68.03044969 59.5 70.8125 C58.96802002 72.24843506 58.96802002 72.24843506 58.42529297 73.71337891 C58.10963379 74.55690918 57.79397461 75.40043945 57.46875 76.26953125 C57.20513672 76.97698486 56.94152344 77.68443848 56.66992188 78.41333008 C56 80 56 80 55 81 C53.14630389 81.08737645 51.28932459 81.10698153 49.43359375 81.09765625 C48.30888672 81.09443359 47.18417969 81.09121094 46.02539062 81.08789062 C44.84138672 81.07951172 43.65738281 81.07113281 42.4375 81.0625 C41.24962891 81.05798828 40.06175781 81.05347656 38.83789062 81.04882812 C35.89187774 81.03699675 32.94596319 81.02051287 30 81 C25.07119841 69.70864552 20.92586095 58.12513592 16.6875 46.5625 C15.23467729 42.60487753 13.77999276 38.64794399 12.32421875 34.69140625 C11.96923309 33.72506256 11.61424744 32.75871887 11.24850464 31.76309204 C8.37463531 23.96112127 5.41896967 16.19171128 2.4025116 8.44374084 C2.0863942 7.62433517 1.77027679 6.8049295 1.44458008 5.96069336 C1.16471756 5.24135117 0.88485504 4.52200897 0.59651184 3.78086853 C0 2 0 2 0 0 Z " fill="#233DFF" transform="translate(648,122)"/>
    <path d="M0 0 C7.26 0 14.52 0 22 0 C22.33 31.68 22.66 63.36 23 96 C25.97 96 28.94 96 32 96 C33.2982126 101.76081841 34.25706972 107.08739655 34 113 C28.34677555 116.44407606 20.84456761 115.78360614 14.546875 114.5 C8.71592503 112.54151299 5.34310873 109.25450394 2.25 104.0625 C-0.21821996 98.0153611 -0.14017952 92.02391834 -0.11352539 85.59814453 C-0.11367142 84.67067917 -0.11381744 83.74321381 -0.1139679 82.78764343 C-0.11327377 79.73600895 -0.10550483 76.68443626 -0.09765625 73.6328125 C-0.09579029 71.51146478 -0.09436723 69.39011662 -0.09336853 67.26876831 C-0.08955735 61.69570722 -0.07973902 56.12267234 -0.06866455 50.54962158 C-0.05842034 44.8586055 -0.05386446 39.16758516 -0.04882812 33.4765625 C-0.03811548 22.31769498 -0.02053002 11.15885378 0 0 Z " fill="#233DFF" transform="translate(744,90)"/>
    <path d="M0 0 C3.54486265 2.10598851 6.36157257 4.4123998 8.4921875 8.0078125 C7.01092393 11.44711833 5.06791304 13.67735588 2.421875 16.30859375 C1.6071875 17.12134766 0.7925 17.93410156 -0.046875 18.77148438 C-1.32691406 20.0331543 -1.32691406 20.0331543 -2.6328125 21.3203125 C-3.46296875 22.14982422 -4.293125 22.97933594 -5.1484375 23.83398438 C-9.57972219 28.23401392 -14.09390461 32.46914662 -18.82861328 36.5402832 C-21.3993104 38.78693345 -23.72004088 41.24400765 -26.0625 43.72265625 C-27.5078125 45.0078125 -27.5078125 45.0078125 -29.5078125 45.0078125 C-33.33754784 33.51860649 -32.8965977 20.86022714 -27.5078125 10.0078125 C-22.08566686 -0.44918266 -11.13927399 -4.40712709 0 0 Z " fill="#080D34" transform="translate(148.5078125,123.9921875)"/>
    <path d="M0 0 C0.66 0.33 1.32 0.66 2 1 C-0.97 3.97 -3.94 6.94 -7 10 C-7 6.04435836 -5.59478606 4.89133304 -3 2 C-2.01 1.34 -1.02 0.68 0 0 Z " fill="#0A1458" transform="translate(47,89)"/>
</svg>