<?xml version="1.0" encoding="UTF-8"?>
<!DOCTYPE svg PUBLIC "-//W3C//DTD SVG 1.1//EN" "http://www.w3.org/Graphics/SVG/1.1/DTD/svg11.dtd">
<svg xmlns="http://www.w3.org/2000/svg" version="1.1" width="995px" height="290px" style="shape-rendering:geometricPrecision; text-rendering:geometricPrecision; image-rendering:optimizeQuality; fill-rule:evenodd; clip-rule:evenodd" xmlns:xlink="http://www.w3.org/1999/xlink">
    <g><path style="opacity:0.946" fill="#38b6ff" d="M 272.5,1.5 C 327.882,1.60099 370.715,24.601 401,70.5C 402.809,73.7779 404.309,77.1112 405.5,80.5C 387.497,80.6666 369.497,80.4999 351.5,80C 319.558,47.3472 282.225,39.0138 239.5,55C 203.472,72.551 183.805,101.384 180.5,141.5C 181.276,180.243 197.943,209.743 230.5,230C 275.556,251.32 315.889,244.653 351.5,210C 504.166,209.5 656.833,209.333 809.5,209.5C 809.5,215.5 809.5,221.5 809.5,227.5C 671.166,227.333 532.833,227.5 394.5,228C 361.85,270.575 318.517,290.242 264.5,287C 196.116,276.615 153.949,237.782 138,170.5C 129.975,116.567 146.142,71.4008 186.5,35C 211.701,14.8784 240.368,3.71171 272.5,1.5 Z M 265.5,19.5 C 307.627,16.587 342.96,30.4203 371.5,61C 366.167,61.6667 360.833,61.6667 355.5,61C 313.665,26.936 268.665,22.2693 220.5,47C 180.906,73.0241 162.739,109.857 166,157.5C 172.547,202.375 196.713,233.541 238.5,251C 281.989,265.366 320.989,257.699 355.5,228C 360.864,227.171 366.198,227.337 371.5,228.5C 332.512,267.913 286.512,279.08 233.5,262C 187.766,241.917 161.266,207.084 154,157.5C 150.791,103.744 171.958,62.9107 217.5,35C 232.748,27.0826 248.748,21.9159 265.5,19.5 Z"/></g>
    <g><path style="opacity:0.906" fill="#fefffe" d="M 565.5,74.5 C 569.683,73.8456 572.516,75.5123 574,79.5C 580.924,96.6033 587.257,113.937 593,131.5C 593.667,134.167 593.667,136.833 593,139.5C 590.936,140.591 588.769,140.758 586.5,140C 583.541,135.58 581.541,130.747 580.5,125.5C 572.14,125.169 563.807,125.502 555.5,126.5C 554.098,130.539 552.598,134.539 551,138.5C 543.317,142.496 540.65,140.163 543,131.5C 548.466,111.583 555.966,92.5828 565.5,74.5 Z M 567.5,91.5 C 570.771,99.1337 573.771,106.967 576.5,115C 570.804,115.83 565.137,115.663 559.5,114.5C 562.179,106.794 564.846,99.1274 567.5,91.5 Z"/></g>
    <g><path style="opacity:0.893" fill="#fefffe" d="M 456.5,75.5 C 462.245,75.2111 467.912,75.7111 473.5,77C 479.657,78.9614 481.324,82.6281 478.5,88C 477.333,88.1667 476.167,88.3333 475,88.5C 458.473,81.7063 448.473,87.0397 445,104.5C 443.662,114.154 446.495,122.32 453.5,129C 461.543,132.723 469.21,132.057 476.5,127C 482.566,126.286 484.4,128.786 482,134.5C 478.995,138.087 475.162,140.254 470.5,141C 447.088,143.616 434.755,133.116 433.5,109.5C 433.283,92.544 440.949,81.2107 456.5,75.5 Z"/></g>
    <g><path style="opacity:0.909" fill="#fefffe" d="M 614.5,75.5 C 623.523,75.5349 632.523,76.0349 641.5,77C 644.399,80.1558 644.065,82.8225 640.5,85C 630.734,85.0513 621.067,85.7179 611.5,87C 610.527,92.4066 610.193,97.9066 610.5,103.5C 617.175,103.334 623.842,103.5 630.5,104C 634.486,105.943 635.153,108.61 632.5,112C 625.239,113.348 617.906,113.848 610.5,113.5C 610.334,118.179 610.501,122.845 611,127.5C 611.309,128.766 611.809,129.933 612.5,131C 621.833,131.333 631.167,131.667 640.5,132C 643.379,133.666 644.212,136.166 643,139.5C 641.933,140.191 640.766,140.691 639.5,141C 629.5,141.667 619.5,141.667 609.5,141C 605.888,140.111 603.388,137.945 602,134.5C 600.412,118.546 600.079,102.546 601,86.5C 602.357,78.9121 606.857,75.2454 614.5,75.5 Z"/></g>
    <g><path style="opacity:0.898" fill="#fefffe" d="M 706.5,75.5 C 710.233,75.7337 712.066,77.7337 712,81.5C 712.5,98.4967 712.667,115.497 712.5,132.5C 720.429,130.903 728.429,130.403 736.5,131C 737.982,133.592 737.648,135.925 735.5,138C 725.761,141.269 715.761,142.269 705.5,141C 705,140.5 704.5,140 704,139.5C 702.384,120.219 702.05,100.885 703,81.5C 703.007,78.6901 704.174,76.6901 706.5,75.5 Z"/></g>
    <g><path style="opacity:0.907" fill="#fefffe" d="M 492.5,76.5 C 494.792,76.2436 496.959,76.5769 499,77.5C 500.123,85.7969 500.623,94.1302 500.5,102.5C 508.833,102.5 517.167,102.5 525.5,102.5C 525.295,94.786 525.795,87.1194 527,79.5C 528.305,76.6936 530.472,75.8603 533.5,77C 534.126,77.7504 534.626,78.5838 535,79.5C 535.667,99.1667 535.667,118.833 535,138.5C 532.822,142.065 530.156,142.399 527,139.5C 526.035,130.523 525.535,121.523 525.5,112.5C 517.167,112.5 508.833,112.5 500.5,112.5C 500.606,121.533 500.106,130.533 499,139.5C 495.45,142.446 492.784,141.779 491,137.5C 490.333,118.5 490.333,99.5 491,80.5C 491.41,79.0993 491.91,77.766 492.5,76.5 Z"/></g>
    <g><path style="opacity:0.884" fill="#fefffe" d="M 648.5,76.5 C 650.527,76.3379 652.527,76.5045 654.5,77C 655.794,79.087 656.961,81.2537 658,83.5C 662.868,97.1031 667.534,110.77 672,124.5C 676.879,108.528 682.546,92.8613 689,77.5C 695.476,75.3941 697.809,77.7275 696,84.5C 691.266,100.368 685.933,116.035 680,131.5C 678.545,134.912 676.712,138.079 674.5,141C 671.975,141.896 669.808,141.396 668,139.5C 658.491,120.809 651.658,101.142 647.5,80.5C 647.623,79.0755 647.957,77.7421 648.5,76.5 Z"/></g>
    <g><path style="opacity:0.891" fill="#fefffe" d="M 741.5,76.5 C 745.909,75.6185 749.409,76.9518 752,80.5C 756.333,87.5 760.667,94.5 765,101.5C 769.717,92.7874 775.217,84.6208 781.5,77C 788.931,75.7665 791.098,78.5998 788,85.5C 782.333,93.5 776.667,101.5 771,109.5C 770.209,119.158 769.542,128.825 769,138.5C 767.695,141.306 765.528,142.14 762.5,141C 761.874,140.25 761.374,139.416 761,138.5C 760.667,129.5 760.333,120.5 760,111.5C 752.603,101.864 746.103,91.697 740.5,81C 740.773,79.4672 741.106,77.9672 741.5,76.5 Z"/></g>
    <g><path style="opacity:0.661" fill="#fefffe" d="M 444.5,157.5 C 447.518,157.335 450.518,157.502 453.5,158C 457.508,158.49 458.175,159.99 455.5,162.5C 444.012,158.32 437.679,162.32 436.5,174.5C 436.192,181.336 439.192,185.836 445.5,188C 449.188,188.45 452.854,188.283 456.5,187.5C 456.5,188.5 456.5,189.5 456.5,190.5C 435.994,193.218 428.827,184.551 435,164.5C 437.529,161.115 440.696,158.782 444.5,157.5 Z"/></g>
    <g><path style="opacity:0.736" fill="#fefffe" d="M 479.5,158.5 C 480.5,158.5 481.5,158.5 482.5,158.5C 482.5,168.167 482.5,177.833 482.5,187.5C 487.833,187.5 493.167,187.5 498.5,187.5C 498.5,188.5 498.5,189.5 498.5,190.5C 492.167,190.5 485.833,190.5 479.5,190.5C 479.5,179.833 479.5,169.167 479.5,158.5 Z"/></g>
    <g><path style="opacity:0.766" fill="#fefffe" d="M 520.5,158.5 C 521.5,158.5 522.5,158.5 523.5,158.5C 523.5,169.167 523.5,179.833 523.5,190.5C 522.5,190.5 521.5,190.5 520.5,190.5C 520.5,179.833 520.5,169.167 520.5,158.5 Z"/></g>
    <g><path style="opacity:0.733" fill="#fefffe" d="M 548.5,158.5 C 554.5,158.5 560.5,158.5 566.5,158.5C 566.5,159.5 566.5,160.5 566.5,161.5C 561.5,161.5 556.5,161.5 551.5,161.5C 551.5,165.167 551.5,168.833 551.5,172.5C 556.5,172.5 561.5,172.5 566.5,172.5C 566.5,173.5 566.5,174.5 566.5,175.5C 561.5,175.5 556.5,175.5 551.5,175.5C 551.5,179.5 551.5,183.5 551.5,187.5C 556.5,187.5 561.5,187.5 566.5,187.5C 566.5,188.5 566.5,189.5 566.5,190.5C 560.5,190.5 554.5,190.5 548.5,190.5C 548.5,179.833 548.5,169.167 548.5,158.5 Z"/></g>
    <g><path style="opacity:0.729" fill="#fefffe" d="M 590.5,158.5 C 591.978,158.238 593.311,158.571 594.5,159.5C 600,167.833 605.5,176.167 611,184.5C 611.5,175.84 611.666,167.173 611.5,158.5C 612.5,158.5 613.5,158.5 614.5,158.5C 614.5,169.167 614.5,179.833 614.5,190.5C 613.022,190.762 611.689,190.429 610.5,189.5C 605,181.167 599.5,172.833 594,164.5C 593.5,173.16 593.334,181.827 593.5,190.5C 592.5,190.5 591.5,190.5 590.5,190.5C 590.5,179.833 590.5,169.167 590.5,158.5 Z"/></g>
    <g><path style="opacity:0.755" fill="#fefffe" d="M 635.5,158.5 C 643.5,158.5 651.5,158.5 659.5,158.5C 659.5,159.5 659.5,160.5 659.5,161.5C 656.167,161.5 652.833,161.5 649.5,161.5C 649.5,171.167 649.5,180.833 649.5,190.5C 648.5,190.5 647.5,190.5 646.5,190.5C 646.5,180.833 646.5,171.167 646.5,161.5C 642.833,161.5 639.167,161.5 635.5,161.5C 635.5,160.5 635.5,159.5 635.5,158.5 Z"/></g>
</svg>